<svg width="467" height="385" viewBox="0 0 467 385" fill="none" xmlns="http://www.w3.org/2000/svg">
<g clip-path="url(#clip0)">
<path d="M379.579 256.448C405.823 256.448 427.098 235.158 427.098 208.895C427.098 182.631 405.823 161.341 379.579 161.341C353.335 161.341 332.06 182.631 332.06 208.895C332.06 235.158 353.335 256.448 379.579 256.448Z" fill="#06D19C"/>
<path d="M467 0H7.62939e-06V14.8682H467V0Z" fill="#F2F2F2"/>
<path d="M12.4968 11.0629C14.6204 11.0629 16.3419 9.3401 16.3419 7.21492C16.3419 5.08974 14.6204 3.36694 12.4968 3.36694C10.3731 3.36694 8.6516 5.08974 8.6516 7.21492C8.6516 9.3401 10.3731 11.0629 12.4968 11.0629Z" fill="#F9A826"/>
<path d="M24.9935 11.0629C27.1172 11.0629 28.8387 9.3401 28.8387 7.21492C28.8387 5.08974 27.1172 3.36694 24.9935 3.36694C22.8699 3.36694 21.1484 5.08974 21.1484 7.21492C21.1484 9.3401 22.8699 11.0629 24.9935 11.0629Z" fill="#F9A826"/>
<path d="M37.4903 11.0629C39.6139 11.0629 41.3355 9.3401 41.3355 7.21492C41.3355 5.08974 39.6139 3.36694 37.4903 3.36694C35.3667 3.36694 33.6452 5.08974 33.6452 7.21492C33.6452 9.3401 35.3667 11.0629 37.4903 11.0629Z" fill="#F9A826"/>
<path d="M0.330452 284.418L0 284.702V385H467V208.824L461.435 209.246L0.330452 284.418Z" fill="#F2F2F2"/>
<path d="M164.112 148.722H33.7024V153.984H164.112V148.722Z" fill="#3F3D56"/>
<path d="M164.112 160.299H33.7024V165.562H164.112V160.299Z" fill="#3F3D56"/>
<path d="M77.8735 171.876H33.7024V177.139H77.8735V171.876Z" fill="#3F3D56"/>
<path d="M218.624 380.148C221.457 380.148 223.753 377.85 223.753 375.015C223.753 372.179 221.457 369.881 218.624 369.881C215.79 369.881 213.494 372.179 213.494 375.015C213.494 377.85 215.79 380.148 218.624 380.148Z" fill="white"/>
<path d="M233.5 380.661C236.333 380.661 238.63 378.363 238.63 375.528C238.63 372.693 236.333 370.394 233.5 370.394C230.667 370.394 228.37 372.693 228.37 375.528C228.37 378.363 230.667 380.661 233.5 380.661Z" fill="#F2F2F2"/>
<path d="M248.376 381.175C251.21 381.175 253.506 378.876 253.506 376.041C253.506 373.206 251.21 370.908 248.376 370.908C245.543 370.908 243.247 373.206 243.247 376.041C243.247 378.876 245.543 381.175 248.376 381.175Z" fill="white"/>
<path d="M233.547 379.635C235.814 379.635 237.651 377.796 237.651 375.528C237.651 373.26 235.814 371.421 233.547 371.421C231.281 371.421 229.443 373.26 229.443 375.528C229.443 377.796 231.281 379.635 233.547 379.635Z" fill="#3F3D56"/>
<path d="M380.134 258.834C380.134 292.338 343.494 280.067 298.296 280.067C253.098 280.067 216.458 292.338 216.458 258.834C216.458 225.33 253.098 158.736 298.296 158.736C343.494 158.736 380.134 225.33 380.134 258.834Z" fill="#F9A826"/>
<path d="M461.746 286.93C452.267 285.323 443.151 283.943 434.398 282.79L437.858 276.076C436.691 275.67 431.565 279.515 431.565 279.515L436.106 260.026C430.238 260.734 427.254 280.634 427.254 280.634L420.698 273.906L423.872 281.47C400.846 278.684 377.679 277.225 354.485 277.1L357.447 271.353C356.28 270.948 351.154 274.793 351.154 274.793L355.695 255.304C349.827 256.012 346.843 275.911 346.843 275.911L340.286 269.183L343.648 277.195C336.038 277.347 329.091 277.672 322.793 278.103L323.838 276.076C323.098 275.818 320.766 277.271 319.159 278.368C318.695 278.404 318.242 278.441 317.787 278.479L322.086 260.026C317.299 260.604 314.432 273.951 313.538 278.85C312.908 278.909 312.284 278.968 311.67 279.029L306.723 273.953C310.867 267.518 316.933 262.44 316.933 262.44C309.162 264.753 305.085 268.629 302.955 272.243C302.764 253.772 305.834 235.413 312.021 218.01C312.021 218.01 295.957 252.991 298.007 276.471L298.226 280.203C276.316 277.996 257.051 277.136 240.466 277.1L243.427 271.353C242.26 270.948 237.134 274.793 237.134 274.793L241.675 255.304C235.807 256.012 232.823 275.911 232.823 275.911L226.267 269.183L229.629 277.195C216.295 277.415 202.982 278.32 189.741 279.906C192.737 270.954 202.913 262.44 202.913 262.44C195.142 264.753 191.065 268.629 188.935 272.243C188.745 253.772 191.814 235.413 198.001 218.01C198.001 218.01 181.937 252.991 183.987 276.471L184.232 280.641C170.614 282.592 163.767 284.623 163.767 284.623L347.726 286.93C344.518 286.386 341.353 285.87 338.23 285.381L461.746 286.93ZM306.708 273.977L308.946 279.31C307.142 279.503 305.408 279.702 303.761 279.906C304.497 277.816 305.486 275.825 306.708 273.977Z" fill="#3F3D56"/>
<path d="M406.178 282.026C406.079 281.864 403.736 277.948 402.923 269.819C402.178 262.36 402.657 249.788 409.173 232.25C421.516 199.027 406.328 172.221 406.173 171.954L406.922 171.519C406.962 171.586 410.881 178.421 413.196 189.304C416.255 203.732 415.141 218.735 409.985 232.552C397.663 265.719 406.823 281.42 406.917 281.575L406.178 282.026Z" fill="#3F3D56"/>
<path d="M401.352 170.003C404.46 170.003 406.981 167.481 406.981 164.37C406.981 161.258 404.46 158.736 401.352 158.736C398.243 158.736 395.723 161.258 395.723 164.37C395.723 167.481 398.243 170.003 401.352 170.003Z" fill="#F9A826"/>
<path d="M419.105 190.802C422.214 190.802 424.734 188.28 424.734 185.169C424.734 182.058 422.214 179.536 419.105 179.536C415.996 179.536 413.476 182.058 413.476 185.169C413.476 188.28 415.996 190.802 419.105 190.802Z" fill="#3F3D56"/>
<path d="M406.981 204.669C410.089 204.669 412.61 202.147 412.61 199.035C412.61 195.924 410.089 193.402 406.981 193.402C403.872 193.402 401.352 195.924 401.352 199.035C401.352 202.147 403.872 204.669 406.981 204.669Z" fill="#F9A826"/>
<path d="M421.703 216.368C424.812 216.368 427.332 213.846 427.332 210.735C427.332 207.624 424.812 205.102 421.703 205.102C418.594 205.102 416.074 207.624 416.074 210.735C416.074 213.846 418.594 216.368 421.703 216.368Z" fill="#F9A826"/>
<path d="M402.651 234.568C405.759 234.568 408.28 232.046 408.28 228.935C408.28 225.824 405.759 223.302 402.651 223.302C399.542 223.302 397.021 225.824 397.021 228.935C397.021 232.046 399.542 234.568 402.651 234.568Z" fill="#3F3D56"/>
<path d="M409.579 282.233C409.579 282.233 403.95 268.367 420.837 257.967L409.579 282.233Z" fill="#3F3D56"/>
<path d="M402.656 281.982C402.656 281.982 400.094 267.236 380.266 267.363L402.656 281.982Z" fill="#3F3D56"/>
<path d="M311.625 41.5372C305.45 31.0964 293.234 30.6098 293.234 30.6098C293.234 30.6098 281.331 29.0865 273.694 44.9879C266.577 59.8094 256.754 74.1198 272.113 77.5894L274.887 68.9482L276.605 78.2328C278.792 78.3902 280.986 78.4277 283.177 78.3451C299.626 77.8137 315.29 78.5006 314.786 72.5939C314.115 64.7418 317.566 51.5833 311.625 41.5372Z" fill="#2F2E41"/>
<path d="M267.12 125.804L265.82 149.203L303.925 153.103L305.224 128.837L292.234 120.604L267.12 125.804Z" fill="#A0616A"/>
<path d="M369.526 177.153C368.383 166.098 323.018 161.081 312.115 160.033L308.039 157.653L306.74 143.787C306.74 143.787 266.47 140.32 263.439 139.887C260.408 139.454 257.81 145.087 257.81 146.387C257.81 147.326 257.244 154.035 254.969 158.012C250.056 161.963 235.077 174.393 235.077 179.103C235.077 184.736 246.985 255.584 246.985 255.584L248.284 270.317L260.408 272.484L259.542 226.551C259.542 226.551 263.872 200.119 257.81 192.752V189.719C257.81 189.719 275.59 185.083 281.857 180.036C283.673 179.645 288.775 178.683 291.593 179.52C291.98 179.748 292.425 179.982 292.921 180.22C292.984 180.277 293.044 180.338 293.1 180.403C293.1 180.403 293.118 180.375 293.149 180.328C301.255 184.125 322.05 188.914 330.555 187.552C337.114 186.55 343.82 187.77 349.607 191.019C344.844 197.085 348.308 214.418 348.308 214.418L348.741 251.684L354.803 259.051H363.03V238.684C363.03 238.684 370.825 189.719 369.526 177.153Z" fill="#2F2E41"/>
<path d="M289.419 70.1218C297.311 70.1218 303.709 63.7197 303.709 55.8222C303.709 47.9247 297.311 41.5225 289.419 41.5225C281.528 41.5225 275.13 47.9247 275.13 55.8222C275.13 63.7197 281.528 70.1218 289.419 70.1218Z" fill="#A0616A"/>
<path d="M280.759 64.9219C280.759 64.9219 282.924 74.455 279.893 75.3217C277.496 76.1169 275.176 77.1323 272.965 78.355L269.501 89.6213V100.888L311.503 105.654L312.802 101.754V96.1212L308.039 87.4547L305.874 85.2881C305.874 85.2881 296.348 74.8884 298.513 64.9219H280.759Z" fill="#A0616A"/>
<path d="M318.214 99.3711C318.214 99.3711 319.513 114.537 318.214 121.471C316.915 128.404 317.348 138.803 317.348 138.803L307.822 137.07V113.671L309.987 101.104L318.214 99.3711Z" fill="#A0616A"/>
<path d="M294.729 39.502C299.608 39.502 303.562 35.5445 303.562 30.6628C303.562 25.781 299.608 21.8235 294.729 21.8235C289.851 21.8235 285.897 25.781 285.897 30.6628C285.897 35.5445 289.851 39.502 294.729 39.502Z" fill="#2F2E41"/>
<path d="M284.967 28.3366C284.967 26.1535 285.775 24.0477 287.234 22.4248C288.693 20.802 290.701 19.7769 292.87 19.547C291.638 19.4157 290.392 19.5452 289.214 19.9271C288.035 20.309 286.95 20.9348 286.029 21.7637C285.108 22.5926 284.371 23.6062 283.867 24.7386C283.362 25.871 283.102 27.0968 283.102 28.3366C283.102 29.5763 283.362 30.8022 283.867 31.9346C284.371 33.067 285.108 34.0806 286.029 34.9095C286.95 35.7384 288.035 36.3641 289.214 36.746C290.392 37.1279 291.638 37.2574 292.87 37.1262C290.701 36.8963 288.693 35.8712 287.234 34.2483C285.775 32.6255 284.967 30.5197 284.967 28.3366Z" fill="#2F2E41"/>
<path d="M308.895 40.531L296.826 34.2042L280.16 36.7925L276.712 52.0333L285.295 51.7026L287.693 46.1035V51.6103L291.654 51.458L293.953 42.5434L295.39 52.0333L309.47 51.7457L308.895 40.531Z" fill="#2F2E41"/>
<path d="M317.781 153.103H264.955V205.969H317.781V153.103Z" fill="#F2F2F2"/>
<path d="M256.295 92.0046L248.5 124.071C248.5 124.071 245.469 131.004 252.397 135.337C259.326 139.67 274.914 145.303 274.914 145.303C274.914 145.303 288.77 164.37 290.502 156.57C292.234 148.77 280.11 138.804 280.11 138.804L258.893 125.371L267.12 102.838L256.295 92.0046Z" fill="#A0616A"/>
<path d="M312.585 132.304C312.585 132.304 319.08 131.437 318.647 138.803C318.214 146.17 309.554 147.037 309.554 147.037C309.554 147.037 305.657 163.503 300.028 160.47C294.399 157.436 303.059 140.97 303.059 140.97L310.42 135.337L312.585 132.304Z" fill="#A0616A"/>
<path d="M270.8 89.188L277.728 74.8884L263.872 79.6549C263.872 79.6549 256.078 83.5548 255.645 92.6546C255.212 101.754 265.604 106.521 265.604 106.521C265.604 106.521 267.336 119.521 266.47 121.254C265.604 122.987 266.47 129.92 266.47 129.92C266.47 129.92 283.141 125.371 291.368 131.004C299.595 136.637 306.307 133.387 306.307 133.387C306.307 133.387 305.874 122.554 309.338 120.821C312.802 119.087 315.833 110.854 312.802 105.654C312.802 105.654 319.73 106.521 319.297 100.021C318.864 93.5213 315.4 87.888 309.771 85.2881C304.142 82.6882 303.519 82.2728 303.519 82.2728L311.503 96.9879V100.888C311.503 100.888 297.37 91.8602 283.387 91.1079C278.826 90.899 274.346 92.3747 270.8 95.2544L270.8 95.2546V89.188Z" fill="#2F2E41"/>
<path d="M259.734 255.765C259.734 255.765 265.879 258.659 267.686 259.744C269.493 260.829 276.722 258.659 275.276 265.17C273.83 271.68 267.686 277.829 267.686 277.829C267.686 277.829 264.794 281.084 264.794 283.255C264.794 285.425 257.566 302.063 248.891 301.34C240.217 300.616 241.663 291.935 241.663 291.935L243.47 282.531C243.47 282.531 247.084 266.616 247.807 266.978C248.53 267.34 250.337 269.872 250.337 269.872C250.337 269.872 259.373 266.255 259.734 255.765Z" fill="#D0CDE1"/>
<path d="M349.848 244.932C349.848 244.932 343.704 247.826 341.896 248.911C340.089 249.996 332.86 247.826 334.306 254.336C335.752 260.847 341.896 266.996 341.896 266.996C341.896 266.996 344.788 270.251 344.788 272.421C344.788 274.592 352.016 291.23 360.691 290.506C369.365 289.783 367.92 281.102 367.92 281.102L366.112 271.698C366.112 271.698 362.498 255.783 361.775 256.145C361.052 256.507 359.245 259.039 359.245 259.039C359.245 259.039 350.209 255.422 349.848 244.932Z" fill="#D0CDE1"/>
</g>
<defs>
<clipPath id="clip0">
<rect width="467" height="385" fill="white"/>
</clipPath>
</defs>
</svg>
