<svg width="569" height="411" viewBox="0 0 569 411" fill="none" xmlns="http://www.w3.org/2000/svg">
<path d="M446.494 410.253C443.59 410.252 440.7 409.852 437.905 409.066L321.85 377.982L322.191 376.76L438.247 407.844C440.931 408.599 443.706 408.983 446.494 408.984C460.151 408.984 472.265 401.065 475.951 387.909L558.565 93.1007H558.564L558.744 92.4591C560.914 84.6475 559.902 76.2937 555.928 69.2277C551.955 62.1617 545.345 56.9595 537.547 54.7607L351.001 2.41581C343.192 0.234976 334.837 1.24248 327.769 5.21736C320.701 9.19224 315.496 15.81 313.298 23.6192L306.816 46.7537L305.595 46.4111L312.076 23.2765C314.366 15.1433 319.786 8.25086 327.147 4.11109C334.509 -0.028684 343.21 -1.07778 351.344 1.1939L537.889 53.5388C545.911 55.8003 552.73 61.1146 556.885 68.3442C561.041 75.5737 562.203 84.1439 560.122 92.2199L560.128 92.2215L559.957 92.8324L477.172 388.252C473.333 401.953 460.717 410.253 446.494 410.253Z" fill="#2F2E41"/>
<path d="M314.069 53.3414L316.193 53.9378L322.731 55.7716L323.416 53.3224L320.968 52.6371L323.118 44.9657L328.285 40.4734L329.661 55.08L325.857 54.0076L325.172 56.4569L334.937 59.198L335.622 56.7487L333.548 56.1713L331.557 37.6307L341.703 28.8046L344.55 29.6041L345.235 27.1548L335.463 24.4137L334.779 26.863L338 27.764L325.096 37.9099L328.672 25.1498L331.12 25.835L331.805 23.3858L322.033 20.6447L321.348 23.0939L325.014 24.1218L317.309 51.6092L313.644 50.5812L313.549 50.9112L313.156 52.3325L314.069 53.3414Z" fill="#F9A826"/>
<path d="M329.788 76.5013C327.348 77.5588 324.967 78.747 322.655 80.0609C322.23 80.302 321.805 80.5495 321.387 80.797V72.948C321.39 70.1244 320.99 67.3148 320.201 64.6041C320.569 64.3756 320.943 64.1282 321.31 63.8807C321.647 63.6586 321.989 63.4302 322.325 63.2018C324.412 67.8486 326.909 72.2995 329.788 76.5013Z" fill="#F9A826"/>
<path d="M446.003 388.225L443.159 387.426L442.474 389.87L452.243 392.611L452.928 390.167L449.711 389.265L462.611 379.115L459.033 391.881L456.591 391.195L455.906 393.639L465.675 396.38L466.36 393.937L462.696 392.909L470.4 365.416L474.064 366.444L474.749 364L464.98 361.259L464.295 363.702L466.737 364.388L464.587 372.062L459.422 376.554L458.049 361.95L461.853 363.017L462.538 360.574L452.769 357.832L452.085 360.276L454.16 360.859L456.152 379.397L446.003 388.225Z" fill="#F9A826"/>
<path d="M457.917 340.527C462.488 338.564 466.838 336.119 470.89 333.231C473.061 337.836 475.557 342.28 478.359 346.53C473.816 348.552 469.473 350.994 465.385 353.825C463.295 349.179 460.796 344.729 457.917 340.527Z" fill="#F9A826"/>
<path d="M372.366 208.415C372.366 208.415 369.158 229.262 368.205 230.312C367.252 231.363 374.863 255.904 374.863 255.904L399.269 241.665C399.269 241.665 404.017 215.319 405.581 214.44C407.144 213.561 372.366 208.415 372.366 208.415Z" fill="#FFB8B8"/>
<path opacity="0.1" d="M372.366 208.415C372.366 208.415 369.158 229.262 368.205 230.312C367.252 231.363 374.863 255.904 374.863 255.904L399.269 241.665C399.269 241.665 404.017 215.319 405.581 214.44C407.144 213.561 372.366 208.415 372.366 208.415Z" fill="black"/>
<path d="M391.247 228.599C404.555 228.599 415.343 217.804 415.343 204.487C415.343 191.171 404.555 180.376 391.247 180.376C377.94 180.376 367.152 191.171 367.152 204.487C367.152 217.804 377.94 228.599 391.247 228.599Z" fill="#FFB8B8"/>
<path d="M380.804 241.755L378.704 239.848L369.266 226.406C369.266 226.406 368.182 225.693 367.155 229.359L366.128 233.024L357.261 236.467L337.64 320.585L390.147 335.318L411.77 251.104L401.614 240.346L400.489 235.156L384.809 241.561L380.804 241.755Z" fill="white"/>
<path d="M321.387 329.204L322.655 329.56L404.427 352.504L431.77 261.99C431.77 261.99 425.302 256.876 420.242 256.114C420.242 256.114 411.745 246.482 408.086 245.454C404.421 244.426 400.369 235.385 400.369 235.385C400.369 235.385 396.089 250.657 388.734 260.454C381.378 270.251 368.569 304.223 368.569 304.223L364.955 241.92L369.013 226.254C366.654 227.653 364.506 229.381 362.634 231.387C359.775 234.534 352.476 237.098 352.476 237.098C352.476 237.098 333.25 242.25 329.852 242.618C326.459 242.98 324.893 243.862 324.893 243.862L322.655 259.274L321.387 268.005V329.204Z" fill="#2F2E41"/>
<path d="M332.547 294.115C331.786 299.173 323.961 320.042 323.961 320.042L322.655 321.355L321.387 322.631V245.34C321.74 244.957 322.173 244.656 322.655 244.458C323.371 244.16 324.124 243.96 324.893 243.862L327.341 244.547C327.341 244.547 333.308 289.052 332.547 294.115Z" fill="#2F2E41"/>
<path d="M388.247 320.946C388.247 320.946 400.248 299.272 409.332 304.457C418.416 309.642 403.853 324.007 403.853 324.007L388.247 320.946Z" fill="#FFB8B8"/>
<path d="M351.101 312.5C351.101 312.5 328.072 305.379 327.558 307.212C327.044 309.044 320.739 319.796 322.57 320.31C324.402 320.824 338.616 324.153 338.444 324.764C338.273 325.375 345.257 328.653 345.257 328.653L351.101 312.5Z" fill="#FFB8B8"/>
<path d="M395.997 243.965L381.34 244.542L378.288 243.685L366.067 235.567L362.019 247.687L377.431 246.74L380.484 247.596L393.157 256.424L395.997 243.965Z" fill="#06D19C"/>
<path d="M356.61 335.137L354.359 339.934L322.021 331.051L321.387 329.204V319.033L322.655 319.528L323.961 320.042L356.61 335.137Z" fill="#2F2E41"/>
<path d="M357.817 314.384C357.817 314.384 350.222 310.935 350.051 311.546C349.88 312.157 339.688 329.726 342.13 330.411C344.573 331.097 353.217 335.499 353.217 335.499L357.817 314.384Z" fill="white"/>
<path d="M427.496 260.788L431.77 261.987C431.77 261.987 434.212 262.673 434.406 266.681C434.599 270.689 437.914 289.412 436.35 290.292C434.787 291.171 434.348 290.389 435.226 291.953C436.105 293.518 436.887 293.078 435.934 294.129C434.981 295.179 432.794 328.833 425.707 340.024C418.619 351.215 416.468 356.543 414.026 355.857L350.724 338.095C350.724 338.095 353.543 313.185 356.157 313.259C358.77 313.334 401.582 322.711 401.582 322.711C401.582 322.711 418.166 258.829 427.496 260.788Z" fill="#2F2E41"/>
<path d="M377.05 178.06L373.097 175.223C373.097 175.223 384.883 168.595 397.464 172.989L394.873 168.375C394.873 168.375 404.575 167.641 410.222 178.297C413.19 183.898 416.602 190.461 417.997 197.166L422.711 198.489L419.64 201.875L425.423 207.745L418.553 205.054C418.27 208.642 417.054 212.093 415.026 215.065L412.191 219.021C412.191 219.021 409.379 204.409 409.828 202.808L408.706 206.812C408.706 206.812 405.314 201.973 405.987 199.57L402.8 201.7L402.834 196.958L386.793 197.208L390.204 194.277L380.663 192.896L385.499 189.502C385.499 189.502 373.635 191.788 372 196.081C370.366 200.373 363.592 204.52 363.592 204.52L362.313 199.842C362.313 199.842 363.761 180.81 377.05 178.06Z" fill="#2F2E41"/>
<path d="M368.767 186.734L368.955 185.913C370.787 177.93 356.693 163.086 356.55 162.936L356.3 162.675L356.398 162.326C356.677 161.331 357.795 160.447 367.595 162.573C371.411 163.401 375.216 164.41 376.809 164.842C376.632 160.285 370.985 154.246 370.925 154.182L370.215 153.429L371.208 153.138C377.717 151.228 385.336 157.561 387.771 159.803L391.841 145.279L399.894 157.183C404.838 149.776 411.99 150.077 412.303 150.094L413.307 150.149L412.824 151.032C409.436 157.234 408.826 161.309 408.791 163.317C417.805 152.601 425.928 153.534 426.282 153.581L427.513 153.744L426.659 154.646C414.858 167.124 413.469 183.584 413.456 183.749L413.413 184.303L368.767 186.734ZM357.955 162.581C360.447 165.283 371.223 177.48 370.33 185.378L412.25 183.096C412.595 180.16 414.721 166.187 424.744 154.86C422.013 155.104 415.569 156.662 408.781 165.343L408.003 166.338L407.67 165.119C407.618 164.927 406.483 160.465 411.191 151.399C409.033 151.604 404.008 152.734 400.456 158.667L399.945 159.521L392.323 148.256L388.411 162.216L387.644 161.438C387.559 161.351 379.381 153.158 372.582 154.135C374.328 156.169 378.503 161.525 378.046 165.735L377.965 166.48L377.244 166.278C369.237 164.031 360.091 162.114 357.955 162.581Z" fill="#F9A826"/>
<path d="M429.441 150.238C429.008 150.117 428.621 149.869 428.328 149.527C428.036 149.186 427.851 148.765 427.797 148.318C427.744 147.871 427.824 147.418 428.027 147.017C428.231 146.615 428.549 146.283 428.941 146.063C429.333 145.842 429.782 145.743 430.231 145.778C430.679 145.812 431.107 145.979 431.461 146.257C431.815 146.535 432.078 146.912 432.218 147.34C432.357 147.768 432.367 148.228 432.245 148.661C432.082 149.242 431.695 149.734 431.169 150.03C430.644 150.326 430.022 150.4 429.441 150.238ZM430.327 147.077C430.136 147.023 429.932 147.028 429.743 147.09C429.554 147.151 429.387 147.268 429.264 147.425C429.141 147.581 429.068 147.771 429.052 147.969C429.037 148.168 429.081 148.366 429.178 148.54C429.276 148.714 429.423 148.854 429.6 148.945C429.777 149.035 429.978 149.07 430.175 149.047C430.373 149.023 430.559 148.941 430.71 148.811C430.861 148.682 430.971 148.51 431.024 148.319C431.096 148.061 431.063 147.786 430.932 147.554C430.802 147.321 430.584 147.15 430.327 147.077Z" fill="#F9A826"/>
<path d="M413.647 145.806C413.214 145.685 412.826 145.437 412.534 145.095C412.241 144.754 412.056 144.333 412.003 143.886C411.949 143.439 412.029 142.986 412.233 142.585C412.437 142.183 412.755 141.851 413.147 141.631C413.539 141.41 413.988 141.311 414.436 141.346C414.885 141.38 415.313 141.547 415.666 141.825C416.02 142.103 416.283 142.48 416.423 142.908C416.563 143.336 416.572 143.796 416.451 144.229C416.288 144.81 415.901 145.302 415.375 145.598C414.849 145.894 414.228 145.968 413.647 145.806ZM414.533 142.645C414.341 142.591 414.138 142.596 413.949 142.658C413.759 142.719 413.593 142.836 413.47 142.993C413.347 143.149 413.273 143.339 413.258 143.537C413.242 143.736 413.286 143.934 413.384 144.108C413.481 144.282 413.628 144.422 413.806 144.513C413.983 144.603 414.183 144.638 414.381 144.615C414.578 144.591 414.764 144.509 414.916 144.379C415.067 144.25 415.176 144.078 415.23 143.887C415.302 143.63 415.268 143.354 415.138 143.122C415.007 142.889 414.789 142.718 414.533 142.645Z" fill="#F9A826"/>
<path d="M389.638 143.331C389.204 143.21 388.817 142.963 388.524 142.621C388.232 142.279 388.047 141.858 387.993 141.411C387.94 140.964 388.02 140.511 388.224 140.11C388.427 139.708 388.745 139.376 389.137 139.156C389.53 138.935 389.978 138.836 390.427 138.871C390.875 138.905 391.303 139.072 391.657 139.35C392.011 139.629 392.274 140.006 392.414 140.433C392.553 140.861 392.563 141.321 392.442 141.754C392.278 142.335 391.891 142.828 391.366 143.123C390.84 143.419 390.218 143.494 389.638 143.331ZM390.523 140.17C390.332 140.117 390.129 140.121 389.939 140.183C389.75 140.245 389.584 140.361 389.461 140.518C389.338 140.674 389.264 140.864 389.248 141.062C389.233 141.261 389.277 141.46 389.374 141.633C389.472 141.807 389.619 141.948 389.796 142.038C389.974 142.128 390.174 142.163 390.371 142.14C390.569 142.116 390.755 142.034 390.906 141.905C391.057 141.775 391.167 141.604 391.221 141.412C391.292 141.155 391.259 140.88 391.129 140.647C390.998 140.414 390.78 140.243 390.523 140.17Z" fill="#F9A826"/>
<path d="M351.309 161.557C350.876 161.436 350.488 161.189 350.196 160.847C349.903 160.505 349.718 160.084 349.665 159.637C349.611 159.19 349.691 158.737 349.895 158.336C350.099 157.934 350.417 157.602 350.809 157.382C351.201 157.161 351.65 157.062 352.098 157.097C352.547 157.131 352.975 157.298 353.329 157.577C353.682 157.855 353.946 158.232 354.085 158.66C354.225 159.087 354.235 159.547 354.113 159.981C353.95 160.561 353.563 161.054 353.037 161.349C352.511 161.645 351.89 161.72 351.309 161.557ZM352.195 158.397C352.003 158.343 351.8 158.347 351.611 158.409C351.422 158.471 351.255 158.587 351.132 158.744C351.009 158.9 350.935 159.09 350.92 159.289C350.905 159.487 350.948 159.686 351.046 159.859C351.143 160.033 351.29 160.174 351.468 160.264C351.645 160.354 351.845 160.39 352.043 160.366C352.24 160.342 352.427 160.26 352.578 160.131C352.729 160.001 352.838 159.83 352.892 159.638C352.964 159.381 352.931 159.106 352.8 158.873C352.669 158.64 352.452 158.469 352.195 158.397Z" fill="#F9A826"/>
<path d="M366.13 151.226C365.697 151.104 365.309 150.857 365.017 150.515C364.724 150.173 364.539 149.752 364.486 149.305C364.432 148.858 364.512 148.405 364.716 148.004C364.92 147.602 365.238 147.271 365.63 147.05C366.022 146.829 366.471 146.73 366.919 146.765C367.368 146.8 367.796 146.966 368.15 147.245C368.503 147.523 368.766 147.9 368.906 148.328C369.046 148.755 369.056 149.215 368.934 149.649C368.771 150.229 368.384 150.722 367.858 151.017C367.332 151.313 366.711 151.388 366.13 151.226ZM367.016 148.065C366.824 148.011 366.621 148.015 366.432 148.077C366.242 148.139 366.076 148.255 365.953 148.412C365.83 148.568 365.756 148.758 365.741 148.957C365.725 149.155 365.769 149.354 365.867 149.527C365.964 149.701 366.111 149.842 366.289 149.932C366.466 150.022 366.666 150.058 366.864 150.034C367.061 150.01 367.248 149.928 367.399 149.799C367.55 149.669 367.659 149.498 367.713 149.306C367.785 149.049 367.752 148.774 367.621 148.541C367.49 148.308 367.273 148.137 367.016 148.065Z" fill="#F9A826"/>
<path d="M441.72 364.946L441.11 364.775L321.582 331.235L321.924 330.013L440.842 363.382L516.001 95.1739L348.407 48.1472L322.844 139.369L321.623 139.026L347.529 46.5825L348.138 46.7538L517.564 94.295L517.393 94.9055L441.72 364.946Z" fill="#2F2E41"/>
<path d="M11.3999 389.5C19.2806 404.125 36.0065 410.404 36.0065 410.404C36.0065 410.404 39.955 392.97 32.0743 378.345C24.1935 363.72 7.46764 357.442 7.46764 357.442C7.46764 357.442 3.51908 374.875 11.3999 389.5Z" fill="#2F2E41"/>
<path d="M16.8166 384.689C31.0447 393.255 36.5243 410.269 36.5243 410.269C36.5243 410.269 18.9358 413.395 4.70772 404.829C-9.52033 396.263 -15 379.249 -15 379.249C-15 379.249 2.58855 376.123 16.8166 384.689Z" fill="#F9A826"/>
<path d="M248.916 359.47C248.838 360.314 248.608 361.138 248.238 361.9C248.206 361.976 248.174 362.046 248.142 362.122C247.775 362.992 247.401 363.848 247.014 364.711C246.823 365.13 246.633 365.555 246.437 365.98H235.936C236.316 365.582 236.668 365.158 236.989 364.711C238.599 362.471 239.531 359.749 241.174 357.332C241.397 357.001 241.654 356.695 241.941 356.418C244.572 353.867 249.081 354.387 248.916 359.47Z" fill="#FFB8B8"/>
<path d="M291.748 363.657C291.783 363.74 291.826 363.815 291.865 363.895C290.435 366.695 289.713 369.804 289.763 372.948C289.763 382.784 295.906 389.654 304.701 389.654C313.495 389.654 319.638 382.784 319.638 372.948C319.638 363.112 313.495 356.242 304.701 356.242C302.625 356.2 300.565 356.618 298.669 357.465C296.773 358.312 295.088 359.568 293.734 361.143C290.918 356.583 285.474 355.982 285.223 355.956L284.926 358.872C285.131 358.894 289.964 359.46 291.748 363.657ZM304.701 359.173C311.771 359.173 316.709 364.838 316.709 372.948C316.709 381.058 311.771 386.723 304.701 386.723C297.63 386.723 292.692 381.058 292.692 372.948C292.664 370.636 293.119 368.343 294.03 366.218C298.402 368.876 306.535 367.287 307.638 367.055L307.036 364.187C304.048 364.813 298.105 365.315 295.518 363.691C296.58 362.262 297.967 361.107 299.564 360.321C301.161 359.536 302.921 359.142 304.701 359.173V359.173Z" fill="#F9A826"/>
<path d="M303.632 349.271C304.585 350.222 305.877 350.756 307.223 350.755C308.57 350.754 309.861 350.218 310.813 349.266C311.765 348.313 312.3 347.021 312.301 345.674C312.302 344.327 311.769 343.034 310.818 342.08L303.632 334.889L296.446 342.08C295.495 343.034 294.962 344.327 294.963 345.674C294.964 347.021 295.499 348.313 296.451 349.266C297.403 350.218 298.694 350.754 300.04 350.755C301.387 350.756 302.678 350.222 303.632 349.271Z" fill="#F9A826"/>
<path d="M210.196 216.02C201.563 201.424 184.484 200.743 184.484 200.743C184.484 200.743 167.842 198.614 157.165 220.844C147.215 241.564 133.481 261.57 154.954 266.421L158.833 254.34L161.235 267.32C164.293 267.54 167.36 267.593 170.423 267.477C193.419 266.734 215.32 267.695 214.615 259.437C213.677 248.46 218.502 230.064 210.196 216.02Z" fill="#2F2E41"/>
<path d="M178.349 265.751C178.391 267.394 178.378 269.126 177.563 270.553C175.945 273.38 171.997 273.804 169.622 276.032C167.124 278.376 166.842 282.179 166.723 285.604C166.598 289.184 166.492 292.881 167.798 296.216C168.598 298.054 169.609 299.791 170.81 301.395C172.26 303.486 173.724 305.568 175.201 307.641C175.989 308.809 176.868 309.912 177.829 310.942C180.474 313.638 184.102 315.131 187.724 316.195C190.065 316.883 192.592 317.419 194.914 316.672C196.45 316.072 197.866 315.2 199.095 314.099C200.822 312.727 202.575 311.326 203.827 309.509C205.777 306.679 206.317 303.136 206.721 299.722C207.916 289.626 208.381 279.458 208.112 269.296C208.161 268.188 207.963 267.084 207.532 266.063C206.329 263.713 203.108 263.211 201.411 261.19C199.96 259.462 199.901 256.996 199.913 254.738L199.945 248.992C199.995 248.508 199.898 248.02 199.665 247.592C199.455 247.362 199.201 247.175 198.919 247.043C198.636 246.911 198.33 246.837 198.018 246.823C194.449 246.231 190.831 245.988 187.215 246.1C184.283 246.19 178.658 245.944 176.123 247.578C173.822 249.061 176.703 253.157 177.236 255.458C177.953 258.843 178.326 262.291 178.349 265.751Z" fill="#A0616A"/>
<path d="M185.078 255.883C197.897 255.883 208.288 245.485 208.288 232.658C208.288 219.83 197.897 209.432 185.078 209.432C172.26 209.432 161.868 219.83 161.868 232.658C161.868 245.485 172.26 255.883 185.078 255.883Z" fill="#A0616A"/>
<path d="M175.521 290.186C174.045 287.99 172.83 285.629 171.901 283.151C171.071 280.641 170.853 277.835 171.838 275.382C169.33 273.926 165.925 275.105 164.098 277.359C162.272 279.612 161.713 282.633 161.552 285.53C161.391 288.428 161.561 291.368 160.931 294.2C159.537 300.466 154.365 305.618 153.98 312.026C153.602 318.33 157.922 323.822 160.047 329.769C161.335 333.476 161.874 337.402 161.631 341.318C161.562 342.583 161.483 344.024 162.374 344.922C162.838 345.328 163.387 345.624 163.981 345.788C174.237 349.399 185.314 349.711 196.183 349.987L214.133 350.442C215.219 350.572 216.319 350.387 217.303 349.911C218.914 348.923 219.129 346.708 219.157 344.817C219.393 328.538 218.701 312.261 218.009 295.995C217.758 290.099 217.503 284.169 216.254 278.401C215.935 276.933 215.414 275.3 214.059 274.652C212.912 274.103 211.552 274.458 210.359 274.899C204.795 276.969 199.986 280.674 196.563 285.526C192.879 290.772 191.068 297.065 187.463 302.35C184.847 306.186 183.334 302.843 181.591 300.018C179.568 296.74 177.545 293.463 175.521 290.186Z" fill="white"/>
<path d="M172.742 275.783C172.286 276.107 171.836 276.45 171.404 276.811C169.789 278.146 168.341 279.671 167.093 281.354C165.026 284.174 163.381 287.28 162.21 290.574C160.105 296.348 159.192 302.478 158.317 308.556C157.935 310.796 157.729 313.061 157.702 315.333C157.835 323.683 162.768 331.418 162.774 339.775C162.774 340.092 162.768 340.403 162.749 340.72C162.69 342.088 162.529 343.45 162.267 344.794C161.906 346.754 161.386 348.69 160.872 350.618C159.579 355.454 158.184 360.466 155.66 364.711C155.406 365.143 155.134 365.568 154.855 365.98H137.1C137.239 365.555 137.385 365.136 137.525 364.711C140.549 355.745 143.572 346.782 146.592 337.82C147.518 335.079 148.444 332.325 149.097 329.508C149.844 326.029 150.355 322.504 150.625 318.956C151.323 311.602 151.781 304.233 152.001 296.849C152.084 294.197 152.141 291.488 152.997 288.975C153.799 286.928 154.86 284.991 156.155 283.214C157.987 280.453 159.82 277.693 161.652 274.933C162.673 273.398 163.745 271.818 165.317 270.86C166.63 270.054 168.19 269.762 169.572 269.083C170.442 268.589 171.277 268.036 172.07 267.427C174.137 265.961 176.566 264.419 178.348 265.917C178.637 266.157 178.885 266.442 179.083 266.761C179.185 266.917 179.276 267.08 179.356 267.249C181.068 270.955 175.044 274.153 172.742 275.783Z" fill="#2F2E41"/>
<path d="M231.231 365.98H149.002C149.446 365.574 149.883 365.149 150.308 364.711C150.372 364.648 150.429 364.584 150.492 364.521C153.637 361.253 154.354 357.236 155.933 352.985C157.118 349.781 158.304 346.579 159.49 343.379C159.678 342.756 159.986 342.176 160.397 341.672C160.74 341.317 161.171 341.059 161.646 340.923C162.004 340.813 162.375 340.745 162.749 340.72C163.283 340.685 163.819 340.685 164.353 340.72C179.109 341.481 193.853 342.41 208.588 343.505C210.49 343.651 212.392 343.797 214.295 343.943C215.848 345.098 217.383 346.323 218.847 347.617C223.609 351.805 227.737 356.735 230.102 362.56C230.388 363.264 230.648 363.981 230.863 364.711C231.003 365.13 231.123 365.555 231.231 365.98Z" fill="#2F2E41"/>
<path d="M206.379 214.613L189.506 205.768L166.205 209.386L161.384 230.693L173.385 230.232L176.737 222.404V230.102L182.275 229.889L185.488 217.427L187.497 230.693L207.183 230.291L206.379 214.613Z" fill="#2F2E41"/>
<path d="M231.231 365.98H212.665C212.532 365.561 212.405 365.136 212.284 364.711C210.973 359.991 210.011 355.181 209.406 350.32C209.209 348.931 209.038 347.535 208.879 346.145C208.778 345.263 208.683 344.387 208.588 343.506C207.522 333.709 206.704 323.816 203.711 314.438C203.35 313.302 202.957 312.173 202.576 311.044C201.874 309.099 201.322 307.103 200.928 305.073C200.116 300.428 200.725 295.618 199.888 290.98C199.419 288.391 198.487 286.113 197.922 283.74C197.563 282.308 197.422 280.83 197.504 279.356C198.87 278.066 200.59 277.213 202.443 276.907C203.084 276.799 203.807 276.716 204.193 276.202C204.422 275.811 204.523 275.359 204.485 274.908C204.529 271.915 204.358 268.923 203.971 265.955C203.845 264.914 203.686 263.874 203.496 262.839C203.49 262.789 203.477 262.744 203.47 262.693C205.018 262.021 206.761 262.014 208.442 262.021C210.274 262.027 212.1 262.027 213.927 262.033C217.306 262.046 220.686 262.057 224.066 262.065C227.211 262.071 230.464 262.103 233.324 263.404C236.278 264.755 238.523 267.363 240.007 270.257C241.491 273.15 242.296 276.335 243.025 279.502C243.228 280.378 243.334 281.274 243.342 282.173C243.482 289.318 238.155 296.513 237.623 303.816C237.452 306.183 237.648 308.569 237.433 310.936C237.217 313.309 236.583 315.631 236.469 318.004C236.462 318.125 236.456 318.252 236.456 318.372C236.386 321.462 237.287 324.489 238.327 327.401C239.937 331.926 241.897 336.31 243.919 340.669C245.872 344.889 247.876 349.089 249.677 353.366C250.613 355.351 251.244 357.467 251.547 359.641C251.747 361.389 251.414 363.157 250.59 364.711C250.379 365.095 250.126 365.455 249.835 365.783L249.823 365.796C249.766 365.86 249.709 365.923 249.652 365.98H231.231Z" fill="#2F2E41"/>
<path d="M255.752 365.98C255.886 365.563 255.998 365.14 256.088 364.711C256.164 364.375 256.227 364.045 256.278 363.709C256.614 361.494 256.608 359.229 257.134 357.052C257.876 353.937 260.101 350.25 258.269 347.63C259.695 347.337 261.039 346.735 262.207 345.866C263.297 344.914 263.931 343.264 263.272 341.97C262.619 340.695 260.85 339.851 261.091 338.436C261.211 337.987 261.422 337.568 261.712 337.205C262.674 335.687 263.171 333.921 263.143 332.124C263.115 330.327 262.562 328.577 261.553 327.091C260.976 326.266 260.266 325.542 259.74 324.679C259.164 323.624 258.724 322.501 258.427 321.335C256.596 315.431 253.897 309.833 250.419 304.724C249.648 303.741 249.05 302.634 248.65 301.45C248.416 300.167 248.369 298.857 248.51 297.56C248.637 292.433 246.722 287.427 243.964 283.112C243.761 282.795 243.552 282.484 243.342 282.173C240.679 278.245 237.376 274.8 234.085 271.38C232.728 272.014 231.529 272.427 230.825 273.747C230.48 274.491 230.268 275.29 230.198 276.107C229.297 282.389 228.517 288.709 227.909 295.022C227.604 298.214 227.293 301.431 227.655 304.616C228.016 307.801 229.101 310.993 231.256 313.36C232.607 314.844 234.319 315.948 235.784 317.319C236.019 317.541 236.247 317.769 236.469 318.004C237.525 319.13 238.462 320.361 239.265 321.678C242.779 327.359 244.408 334.006 243.919 340.669C243.831 341.87 243.672 343.065 243.444 344.248C243.165 345.941 242.594 347.573 241.757 349.07C241.091 350.168 240.216 351.126 239.614 352.262C239.011 353.398 238.726 354.813 239.322 355.948C240.216 355.948 241.103 356.107 241.941 356.418C243.915 357.18 245.631 358.489 246.887 360.193C247.35 360.806 247.769 361.451 248.142 362.122C248.613 362.959 249.032 363.824 249.398 364.711C249.55 365.06 249.696 365.422 249.835 365.783C249.867 365.846 249.893 365.912 249.912 365.98H255.752Z" fill="#2F2E41"/>
<path d="M203.909 255.587L190.463 261.455L187.308 261.767L172.974 258.649L173.607 271.412L187.62 264.924L190.775 264.612L205.788 268.227L203.909 255.587Z" fill="#06D19C"/>
<path d="M321.311 63.8807C320.219 60.2842 318.486 56.9154 316.193 53.9378C315.377 52.8738 314.494 51.8629 313.549 50.9112C310.653 47.9933 307.208 45.6781 303.413 44.099C299.618 42.5199 295.548 41.7082 291.438 41.7107H97.6974C89.4209 41.7191 81.4858 45.0128 75.6334 50.8691C69.781 56.7254 66.4894 64.6659 66.481 72.948V379.763C66.4894 388.045 69.781 395.985 75.6334 401.842C81.4858 407.698 89.4209 410.992 97.6974 411H291.438C299.715 410.992 307.65 407.698 313.502 401.842C319.355 395.985 322.646 388.045 322.655 379.763V72.948C322.658 69.8756 322.205 66.8198 321.311 63.8807ZM321.387 379.763C321.377 387.708 318.219 395.325 312.604 400.943C306.99 406.561 299.378 409.721 291.438 409.731H97.6974C89.7576 409.721 82.1457 406.561 76.5314 400.943C70.9171 395.325 67.7588 387.708 67.7492 379.763V72.948C67.7588 65.0028 70.9171 57.3858 76.5314 51.7678C82.1457 46.1497 89.7576 42.9893 97.6974 42.9797H291.438C295.504 42.9779 299.527 43.8064 303.261 45.4146C306.996 47.0228 310.363 49.3768 313.156 52.3325C313.467 52.6624 313.771 52.9987 314.069 53.3414C318.789 58.7813 321.388 65.7437 321.387 72.948V379.763Z" fill="#2F2E41"/>
<path d="M97.388 91.0187C97.3528 90.936 97.3093 90.8608 97.2706 90.7812C98.7007 87.9809 99.4224 84.8723 99.3724 81.7279C99.3724 71.8919 93.2298 65.0222 84.4352 65.0222C75.6405 65.0222 69.4979 71.8919 69.4979 81.7279C69.4979 91.564 75.6405 98.4337 84.4352 98.4337C86.5111 98.4756 88.5706 98.0581 90.4665 97.211C92.3624 96.3638 94.0478 95.1079 95.4022 93.5331C98.2182 98.0928 103.662 98.6944 103.913 98.7196L104.21 95.8036C104.005 95.7816 99.1722 95.2158 97.388 91.0187ZM84.4352 95.5028C77.3647 95.5028 72.4268 89.8384 72.4268 81.7279C72.4268 73.6175 77.3647 67.953 84.4352 67.953C91.5056 67.953 96.4435 73.6175 96.4435 81.7279C96.4721 84.0402 96.0163 86.3328 95.1056 88.4581C90.734 85.8003 82.6008 87.3884 81.4977 87.6211L82.1001 90.4892C85.0876 89.8633 91.0309 89.3612 93.618 90.9854C92.5559 92.414 91.169 93.5689 89.5721 94.3545C87.9752 95.1401 86.2143 95.5337 84.4352 95.5028Z" fill="#F9A826"/>
<path d="M85.5038 105.405C84.5506 104.452 83.2584 103.918 81.9113 103.918C80.5642 103.918 79.2724 104.454 78.3199 105.407C77.3673 106.361 76.832 107.653 76.8315 109.001C76.8311 110.349 77.3655 111.642 78.3174 112.596L85.5038 119.787L92.6902 112.596C93.64 111.642 94.1727 110.349 94.1713 109.003C94.17 107.656 93.6347 106.364 92.6829 105.412C91.7312 104.46 90.4408 103.924 89.0948 103.923C87.7489 103.921 86.4574 104.454 85.5038 105.405Z" fill="#F9A826"/>
<path d="M230.863 364.711C231.003 365.13 231.123 365.555 231.231 365.98H235.936C236.316 365.582 236.668 365.158 236.989 364.711H230.863ZM106.587 86.1578V365.98H281.914V86.1578H106.587ZM280.646 364.711H107.856V87.4268H280.646V364.711ZM230.863 364.711C231.003 365.13 231.123 365.555 231.231 365.98H235.936C236.316 365.582 236.668 365.158 236.989 364.711H230.863Z" fill="#2F2E41"/>
<path d="M164.195 208.577L164.304 208.032C164.336 207.87 167.44 191.645 159.444 176.443L158.865 175.343L160.095 175.519C160.448 175.57 168.521 176.866 174.309 189.619C174.817 187.676 175.329 183.588 173.74 176.7L173.514 175.72L174.496 175.938C174.801 176.006 181.768 177.649 184.53 186.117L195.497 176.831V191.915C198.446 190.414 207.49 186.375 213.243 189.972L214.12 190.521L213.233 191.054C213.158 191.1 206.092 195.388 204.691 199.729C206.342 199.743 210.278 199.799 214.175 200.033C224.185 200.634 225.024 201.788 225.024 202.821V203.183L224.712 203.367C224.535 203.472 206.958 213.958 206.569 222.139L206.528 222.981L164.195 208.577ZM203.885 200.993H203.136L203.259 200.254C203.955 196.077 209.421 192.048 211.65 190.561C205.367 187.783 195.283 193.463 195.177 193.523L194.229 194.065V179.567L183.851 188.354L183.589 187.394C181.77 180.722 177.237 178.276 175.213 177.496C177.301 187.497 175.004 191.487 174.902 191.657L174.252 192.741L173.772 191.573C169.578 181.38 163.794 178.139 161.23 177.166C167.824 190.781 166.101 204.809 165.642 207.729L205.389 221.252C206.661 213.406 220.327 204.574 223.456 202.645C221.525 201.618 212.201 200.993 203.885 200.993Z" fill="#F9A826"/>
<path d="M155.68 169.171C155.68 168.721 155.813 168.281 156.063 167.906C156.313 167.532 156.668 167.24 157.084 167.068C157.499 166.896 157.957 166.851 158.398 166.939C158.839 167.026 159.244 167.243 159.563 167.562C159.881 167.88 160.097 168.285 160.185 168.727C160.273 169.168 160.228 169.626 160.056 170.042C159.883 170.458 159.592 170.813 159.218 171.063C158.844 171.313 158.404 171.447 157.954 171.447C157.351 171.446 156.773 171.206 156.347 170.78C155.92 170.353 155.68 169.774 155.68 169.171ZM156.948 169.171C156.948 169.37 157.007 169.565 157.118 169.73C157.228 169.896 157.385 170.025 157.569 170.101C157.753 170.177 157.955 170.197 158.151 170.158C158.346 170.12 158.525 170.024 158.666 169.883C158.806 169.742 158.902 169.563 158.941 169.367C158.98 169.172 158.96 168.97 158.884 168.786C158.808 168.602 158.679 168.444 158.513 168.334C158.348 168.223 158.153 168.164 157.954 168.164C157.687 168.164 157.432 168.27 157.243 168.459C157.054 168.648 156.948 168.904 156.948 169.171Z" fill="#F9A826"/>
<path d="M172.084 169.171C172.084 168.721 172.217 168.281 172.467 167.906C172.717 167.532 173.072 167.24 173.488 167.068C173.903 166.896 174.361 166.851 174.802 166.939C175.243 167.026 175.648 167.243 175.966 167.562C176.284 167.88 176.501 168.285 176.589 168.727C176.677 169.168 176.631 169.626 176.459 170.042C176.287 170.458 175.996 170.813 175.622 171.063C175.248 171.313 174.808 171.447 174.358 171.447C173.755 171.446 173.177 171.206 172.75 170.78C172.324 170.353 172.084 169.774 172.084 169.171ZM173.352 169.171C173.352 169.37 173.411 169.565 173.521 169.73C173.632 169.896 173.789 170.025 173.973 170.101C174.157 170.177 174.359 170.197 174.554 170.158C174.75 170.12 174.929 170.024 175.07 169.883C175.21 169.742 175.306 169.563 175.345 169.367C175.384 169.172 175.364 168.97 175.288 168.786C175.211 168.602 175.083 168.444 174.917 168.334C174.752 168.223 174.557 168.164 174.358 168.164C174.091 168.164 173.835 168.27 173.647 168.459C173.458 168.648 173.352 168.904 173.352 169.171Z" fill="#F9A826"/>
<path d="M195.869 173.275C195.869 172.825 196.002 172.385 196.252 172.01C196.502 171.636 196.857 171.344 197.273 171.172C197.689 171 198.146 170.955 198.587 171.043C199.028 171.13 199.434 171.347 199.752 171.665C200.07 171.984 200.286 172.389 200.374 172.831C200.462 173.272 200.417 173.73 200.245 174.146C200.072 174.562 199.781 174.917 199.407 175.167C199.033 175.417 198.593 175.551 198.143 175.551C197.54 175.55 196.962 175.31 196.536 174.883C196.109 174.457 195.87 173.878 195.869 173.275ZM197.137 173.275C197.137 173.474 197.196 173.669 197.307 173.834C197.417 174 197.574 174.129 197.758 174.205C197.942 174.281 198.144 174.301 198.34 174.262C198.535 174.223 198.714 174.128 198.855 173.987C198.996 173.846 199.091 173.667 199.13 173.471C199.169 173.276 199.149 173.073 199.073 172.889C198.997 172.705 198.868 172.548 198.702 172.438C198.537 172.327 198.342 172.268 198.143 172.268C197.877 172.268 197.621 172.374 197.432 172.563C197.244 172.752 197.137 173.008 197.137 173.275Z" fill="#F9A826"/>
<path d="M227.856 201.18C227.856 200.729 227.99 200.289 228.24 199.915C228.489 199.541 228.845 199.249 229.26 199.077C229.676 198.905 230.133 198.86 230.574 198.947C231.016 199.035 231.421 199.252 231.739 199.57C232.057 199.889 232.274 200.294 232.361 200.736C232.449 201.177 232.404 201.635 232.232 202.051C232.06 202.466 231.768 202.822 231.394 203.072C231.02 203.322 230.58 203.456 230.131 203.456C229.528 203.455 228.949 203.215 228.523 202.788C228.097 202.362 227.857 201.783 227.856 201.18ZM229.124 201.18C229.124 201.379 229.183 201.573 229.294 201.739C229.405 201.905 229.562 202.034 229.746 202.11C229.929 202.186 230.132 202.206 230.327 202.167C230.522 202.128 230.701 202.032 230.842 201.892C230.983 201.751 231.079 201.571 231.118 201.376C231.156 201.181 231.136 200.978 231.06 200.794C230.984 200.61 230.855 200.453 230.69 200.342C230.524 200.232 230.33 200.173 230.131 200.173C229.864 200.173 229.608 200.279 229.419 200.468C229.231 200.657 229.125 200.913 229.124 201.18Z" fill="#F9A826"/>
<path d="M216.373 187.227C216.373 186.777 216.507 186.337 216.757 185.962C217.007 185.588 217.362 185.296 217.778 185.124C218.193 184.952 218.651 184.907 219.092 184.994C219.533 185.082 219.938 185.299 220.256 185.617C220.575 185.936 220.791 186.341 220.879 186.783C220.967 187.224 220.922 187.682 220.749 188.098C220.577 188.514 220.286 188.869 219.912 189.119C219.538 189.37 219.098 189.503 218.648 189.503C218.045 189.502 217.467 189.262 217.04 188.836C216.614 188.409 216.374 187.83 216.373 187.227ZM217.642 187.227C217.642 187.426 217.701 187.621 217.811 187.787C217.922 187.952 218.079 188.081 218.263 188.158C218.447 188.234 218.649 188.254 218.844 188.215C219.04 188.176 219.219 188.08 219.36 187.939C219.5 187.798 219.596 187.619 219.635 187.424C219.674 187.228 219.654 187.026 219.578 186.842C219.502 186.658 219.373 186.5 219.207 186.39C219.042 186.279 218.847 186.22 218.648 186.22C218.381 186.22 218.125 186.327 217.937 186.515C217.748 186.704 217.642 186.96 217.642 187.227Z" fill="#F9A826"/>
<path d="M569 409.445H-7.39087V410.714H569V409.445Z" fill="#3F3D56"/>
</svg>
