<svg width="81" height="49" viewBox="0 0 81 49" fill="none" xmlns="http://www.w3.org/2000/svg">
<path d="M9.19566 8.69565C10.2685 8.69565 11.2221 8.92554 12.0565 9.38532C12.908 9.8451 13.5721 10.5263 14.0489 11.4288C14.5428 12.3313 14.7897 13.4212 14.7897 14.6984V23H11.9033V15.1326C11.9033 13.8725 11.5882 12.9103 10.9582 12.2462C10.3281 11.565 9.46812 11.2245 8.37826 11.2245C7.28841 11.2245 6.41993 11.565 5.77283 12.2462C5.14276 12.9103 4.82772 13.8725 4.82772 15.1326V23H1.91576V4.09782H4.82772V10.5603C5.32156 9.96431 5.94312 9.50452 6.69239 9.18097C7.4587 8.85742 8.29312 8.69565 9.19566 8.69565ZM17.5334 15.8989C17.5334 14.4855 17.8229 13.2339 18.4019 12.144C18.9979 11.0542 19.7983 10.2112 20.803 9.61521C21.8247 9.00217 22.9486 8.69565 24.1747 8.69565C25.2816 8.69565 26.2437 8.91702 27.0611 9.35978C27.8956 9.7855 28.5597 10.3219 29.0535 10.969V8.92554H31.991V23H29.0535V20.9054C28.5597 21.5696 27.887 22.123 27.0356 22.5658C26.1841 23.0085 25.2135 23.2299 24.1236 23.2299C22.9146 23.2299 21.8077 22.9234 20.803 22.3103C19.7983 21.6803 18.9979 20.8118 18.4019 19.7049C17.8229 18.581 17.5334 17.3123 17.5334 15.8989ZM29.0535 15.95C29.0535 14.9793 28.8492 14.1364 28.4405 13.4212C28.0488 12.706 27.5294 12.161 26.8823 11.7864C26.2352 11.4118 25.537 11.2245 24.7878 11.2245C24.0385 11.2245 23.3403 11.4118 22.6932 11.7864C22.0461 12.144 21.5182 12.6804 21.1095 13.3956C20.7178 14.0938 20.522 14.9283 20.522 15.8989C20.522 16.8696 20.7178 17.721 21.1095 18.4533C21.5182 19.1855 22.0461 19.7475 22.6932 20.1391C23.3573 20.5138 24.0555 20.7011 24.7878 20.7011C25.537 20.7011 26.2352 20.5138 26.8823 20.1391C27.5294 19.7645 28.0488 19.2196 28.4405 18.5043C28.8492 17.7721 29.0535 16.9206 29.0535 15.95ZM34.8451 15.95C34.8451 14.5025 35.1346 13.2339 35.7136 12.144C36.3096 11.0371 37.127 10.1857 38.1658 9.58967C39.2045 8.99365 40.3966 8.69565 41.7419 8.69565C43.4448 8.69565 44.8496 9.10434 45.9565 9.92173C47.0804 10.7221 47.8382 11.8716 48.2299 13.3701H45.088C44.8326 12.6719 44.4239 12.127 43.862 11.7353C43.3 11.3437 42.5933 11.1478 41.7419 11.1478C40.5498 11.1478 39.5962 11.5735 38.881 12.425C38.1828 13.2594 37.8337 14.4344 37.8337 15.95C37.8337 17.4656 38.1828 18.6491 38.881 19.5005C39.5962 20.352 40.5498 20.7777 41.7419 20.7777C43.4277 20.7777 44.5431 20.037 45.088 18.5554H48.2299C47.8212 19.9859 47.0549 21.1268 45.931 21.9783C44.8071 22.8127 43.4107 23.2299 41.7419 23.2299C40.3966 23.2299 39.2045 22.9319 38.1658 22.3359C37.127 21.7228 36.3096 20.8714 35.7136 19.7815C35.1346 18.6746 34.8451 17.3975 34.8451 15.95ZM56.7004 15.9755L63.1884 23H59.2547L54.0438 16.9462V23H51.1319V4.09782H54.0438V15.0815L59.1525 8.92554H63.1884L56.7004 15.9755ZM64.3049 15.8989C64.3049 14.4855 64.5944 13.2339 65.1734 12.144C65.7694 11.0542 66.5698 10.2112 67.5745 9.61521C68.5962 9.00217 69.7202 8.69565 70.9462 8.69565C72.0531 8.69565 73.0153 8.91702 73.8327 9.35978C74.6671 9.7855 75.3312 10.3219 75.825 10.969V8.92554H78.7625V23H75.825V20.9054C75.3312 21.5696 74.6586 22.123 73.8071 22.5658C72.9557 23.0085 71.985 23.2299 70.8952 23.2299C69.6861 23.2299 68.5792 22.9234 67.5745 22.3103C66.5698 21.6803 65.7694 20.8118 65.1734 19.7049C64.5944 18.581 64.3049 17.3123 64.3049 15.8989ZM75.825 15.95C75.825 14.9793 75.6207 14.1364 75.212 13.4212C74.8203 12.706 74.3009 12.161 73.6538 11.7864C73.0067 11.4118 72.3086 11.2245 71.5593 11.2245C70.81 11.2245 70.1118 11.4118 69.4647 11.7864C68.8176 12.144 68.2897 12.6804 67.881 13.3956C67.4894 14.0938 67.2935 14.9283 67.2935 15.8989C67.2935 16.8696 67.4894 17.721 67.881 18.4533C68.2897 19.1855 68.8176 19.7475 69.4647 20.1391C70.1288 20.5138 70.827 20.7011 71.5593 20.7011C72.3086 20.7011 73.0067 20.5138 73.6538 20.1391C74.3009 19.7645 74.8203 19.2196 75.212 18.5043C75.6207 17.7721 75.825 16.9206 75.825 15.95Z" fill="black"/>
<path d="M6.59021 30.2032V37.994C6.59021 38.5219 6.70941 38.9051 6.94782 39.1435C7.20325 39.3648 7.62897 39.4755 8.22499 39.4755H10.013V41.9022H7.71412C6.40289 41.9022 5.39818 41.5956 4.69999 40.9826C4.0018 40.3696 3.65271 39.3734 3.65271 37.994V30.2032H1.99238V27.8277H3.65271V24.3282H6.59021V27.8277H10.013V30.2032H6.59021ZM11.9817 34.8011C11.9817 33.3877 12.2712 32.136 12.8502 31.0462C13.4462 29.9563 14.2465 29.1134 15.2512 28.5174C16.273 27.9043 17.3969 27.5978 18.623 27.5978C19.7299 27.5978 20.692 27.8192 21.5094 28.2619C22.3438 28.6877 23.008 29.2241 23.5018 29.8712V27.8277H26.4393V41.9022H23.5018V39.8076C23.008 40.4717 22.3353 41.0252 21.4839 41.4679C20.6324 41.9107 19.6618 42.1321 18.5719 42.1321C17.3628 42.1321 16.256 41.8255 15.2512 41.2125C14.2465 40.5824 13.4462 39.7139 12.8502 38.6071C12.2712 37.4831 11.9817 36.2145 11.9817 34.8011ZM23.5018 34.8522C23.5018 33.8815 23.2974 33.0386 22.8887 32.3234C22.4971 31.6081 21.9777 31.0632 21.3306 30.6886C20.6835 30.3139 19.9853 30.1266 19.236 30.1266C18.4868 30.1266 17.7886 30.3139 17.1415 30.6886C16.4944 31.0462 15.9665 31.5826 15.5578 32.2978C15.1661 32.996 14.9703 33.8304 14.9703 34.8011C14.9703 35.7717 15.1661 36.6232 15.5578 37.3554C15.9665 38.0877 16.4944 38.6496 17.1415 39.0413C17.8056 39.4159 18.5038 39.6032 19.236 39.6032C19.9853 39.6032 20.6835 39.4159 21.3306 39.0413C21.9777 38.6667 22.4971 38.1217 22.8887 37.4065C23.2974 36.6743 23.5018 35.8228 23.5018 34.8522ZM37.6206 27.5978C38.7274 27.5978 39.7151 27.8277 40.5836 28.2875C41.4691 28.7473 42.1588 29.4284 42.6526 30.331C43.1465 31.2335 43.3934 32.3234 43.3934 33.6005V41.9022H40.507V34.0348C40.507 32.7746 40.1919 31.8125 39.5619 31.1484C38.9318 30.4672 38.0718 30.1266 36.982 30.1266C35.8921 30.1266 35.0236 30.4672 34.3765 31.1484C33.7465 31.8125 33.4314 32.7746 33.4314 34.0348V41.9022H30.5195V27.8277H33.4314V29.4369C33.9082 28.858 34.5128 28.4067 35.245 28.0831C35.9943 27.7596 36.7861 27.5978 37.6206 27.5978ZM53.0339 27.5978C54.1237 27.5978 55.0858 27.8192 55.9203 28.2619C56.7717 28.6877 57.4358 29.2241 57.9127 29.8712V27.8277H60.8502V42.1321C60.8502 43.4263 60.5777 44.5757 60.0328 45.5804C59.4878 46.6022 58.696 47.4025 57.6572 47.9815C56.6355 48.5605 55.4094 48.85 53.979 48.85C52.0717 48.85 50.488 48.3987 49.2279 47.4962C47.9677 46.6107 47.2525 45.4016 47.0822 43.869H49.9686C50.19 44.6013 50.6583 45.1888 51.3735 45.6315C52.1058 46.0913 52.9743 46.3212 53.979 46.3212C55.154 46.3212 56.0991 45.9636 56.8143 45.2484C57.5465 44.5331 57.9127 43.4944 57.9127 42.1321V39.7821C57.4188 40.4462 56.7462 41.0081 55.8947 41.4679C55.0603 41.9107 54.1067 42.1321 53.0339 42.1321C51.8078 42.1321 50.6839 41.8255 49.6621 41.2125C48.6574 40.5824 47.857 39.7139 47.261 38.6071C46.682 37.4831 46.3925 36.2145 46.3925 34.8011C46.3925 33.3877 46.682 32.136 47.261 31.0462C47.857 29.9563 48.6574 29.1134 49.6621 28.5174C50.6839 27.9043 51.8078 27.5978 53.0339 27.5978ZM57.9127 34.8522C57.9127 33.8815 57.7083 33.0386 57.2996 32.3234C56.9079 31.6081 56.3886 31.0632 55.7415 30.6886C55.0944 30.3139 54.3962 30.1266 53.6469 30.1266C52.8976 30.1266 52.1994 30.3139 51.5523 30.6886C50.9052 31.0462 50.3773 31.5826 49.9686 32.2978C49.577 32.996 49.3811 33.8304 49.3811 34.8011C49.3811 35.7717 49.577 36.6232 49.9686 37.3554C50.3773 38.0877 50.9052 38.6496 51.5523 39.0413C52.2165 39.4159 52.9147 39.6032 53.6469 39.6032C54.3962 39.6032 55.0944 39.4159 55.7415 39.0413C56.3886 38.6667 56.9079 38.1217 57.2996 37.4065C57.7083 36.6743 57.9127 35.8228 57.9127 34.8522ZM63.9597 34.8011C63.9597 33.3877 64.2492 32.136 64.8282 31.0462C65.4242 29.9563 66.2245 29.1134 67.2292 28.5174C68.251 27.9043 69.3749 27.5978 70.601 27.5978C71.7079 27.5978 72.67 27.8192 73.4874 28.2619C74.3218 28.6877 74.986 29.2241 75.4798 29.8712V27.8277H78.4173V41.9022H75.4798V39.8076C74.986 40.4717 74.3133 41.0252 73.4619 41.4679C72.6104 41.9107 71.6398 42.1321 70.5499 42.1321C69.3408 42.1321 68.234 41.8255 67.2292 41.2125C66.2245 40.5824 65.4242 39.7139 64.8282 38.6071C64.2492 37.4831 63.9597 36.2145 63.9597 34.8011ZM75.4798 34.8522C75.4798 33.8815 75.2754 33.0386 74.8668 32.3234C74.4751 31.6081 73.9557 31.0632 73.3086 30.6886C72.6615 30.3139 71.9633 30.1266 71.214 30.1266C70.4648 30.1266 69.7666 30.3139 69.1195 30.6886C68.4724 31.0462 67.9445 31.5826 67.5358 32.2978C67.1441 32.996 66.9483 33.8304 66.9483 34.8011C66.9483 35.7717 67.1441 36.6232 67.5358 37.3554C67.9445 38.0877 68.4724 38.6496 69.1195 39.0413C69.7836 39.4159 70.4818 39.6032 71.214 39.6032C71.9633 39.6032 72.6615 39.4159 73.3086 39.0413C73.9557 38.6667 74.4751 38.1217 74.8668 37.4065C75.2754 36.6743 75.4798 35.8228 75.4798 34.8522Z" fill="black"/>
</svg>
