<svg width="485" height="302" viewBox="0 0 485 302" fill="none" xmlns="http://www.w3.org/2000/svg">
<path d="M368.701 268.701C429.349 268.701 478.515 219.574 478.515 158.974C478.515 98.3736 429.349 49.2473 368.701 49.2473C308.052 49.2473 258.887 98.3736 258.887 158.974C258.887 219.574 308.052 268.701 368.701 268.701Z" fill="#F2F2F2"/>
<path d="M59.5788 83.8071C82.7399 83.8071 101.516 65.0462 101.516 41.9036C101.516 18.7609 82.7399 0 59.5788 0C36.4178 0 17.642 18.7609 17.642 41.9036C17.642 65.0462 36.4178 83.8071 59.5788 83.8071Z" fill="#06D19C"/>
<path d="M134.806 225.069C195.454 225.069 244.62 175.943 244.62 115.342C244.62 54.7421 195.454 5.61574 134.806 5.61574C74.1571 5.61574 24.9917 54.7421 24.9917 115.342C24.9917 175.943 74.1571 225.069 134.806 225.069Z" fill="#F2F2F2"/>
<path d="M129.618 231.117C196.236 231.117 250.24 228.216 250.24 224.638C250.24 221.059 196.236 218.158 129.618 218.158C62.9997 218.158 8.99522 221.059 8.99522 224.638C8.99522 228.216 62.9997 231.117 129.618 231.117Z" fill="#3F3D56"/>
<path opacity="0.1" d="M105.407 229.33C155.31 229.33 195.765 227.329 195.765 224.861C195.765 222.393 155.31 220.392 105.407 220.392C55.5029 220.392 15.048 222.393 15.048 224.861C15.048 227.329 55.5029 229.33 105.407 229.33Z" fill="black"/>
<path d="M364.378 276.909C430.996 276.909 485 273.718 485 269.781C485 265.844 430.996 262.653 364.378 262.653C297.76 262.653 243.755 265.844 243.755 269.781C243.755 273.718 297.76 276.909 364.378 276.909Z" fill="#3F3D56"/>
<path opacity="0.1" d="M340.167 274.943C390.07 274.943 430.525 272.742 430.525 270.027C430.525 267.312 390.07 265.111 340.167 265.111C290.263 265.111 249.808 267.312 249.808 270.027C249.808 272.742 290.263 274.943 340.167 274.943Z" fill="black"/>
<path d="M173.326 257.037C215.838 257.037 250.301 255.296 250.301 253.149C250.301 251.002 215.838 249.261 173.326 249.261C130.814 249.261 96.3508 251.002 96.3508 253.149C96.3508 255.296 130.814 257.037 173.326 257.037Z" fill="#3F3D56"/>
<path d="M37.1392 242.065C57.6506 242.065 74.2783 241.225 74.2783 240.189C74.2783 239.153 57.6506 238.313 37.1392 238.313C16.6278 238.313 0 239.153 0 240.189C0 241.225 16.6278 242.065 37.1392 242.065Z" fill="#3F3D56"/>
<path d="M411.987 302C450.162 302 481.109 300.437 481.109 298.509C481.109 296.581 450.162 295.017 411.987 295.017C373.812 295.017 342.865 296.581 342.865 298.509C342.865 300.437 373.812 302 411.987 302Z" fill="#3F3D56"/>
<path d="M404.585 187.054H266.237V269.133H404.585V187.054Z" fill="#3F3D56"/>
<path d="M310.768 260.061C327.959 260.061 341.896 246.136 341.896 228.957C341.896 211.779 327.959 197.854 310.768 197.854C293.576 197.854 279.639 211.779 279.639 228.957C279.639 246.136 293.576 260.061 310.768 260.061Z" fill="#F9A826"/>
<path d="M361.784 200.014H351.407V210.382H361.784V200.014Z" fill="#F9A826"/>
<path opacity="0.5" d="M374.754 200.014H364.378V210.382H374.754V200.014Z" fill="#F9A826"/>
<path opacity="0.2" d="M387.724 200.014H377.348V210.382H387.724V200.014Z" fill="#F9A826"/>
<path d="M361.784 212.974H351.407V223.342H361.784V212.974Z" fill="#2F2E41"/>
<path opacity="0.5" d="M374.754 212.974H364.378V223.342H374.754V212.974Z" fill="#2F2E41"/>
<path opacity="0.2" d="M387.724 212.974H377.348V223.342H387.724V212.974Z" fill="#2F2E41"/>
<path d="M361.784 225.934H351.407V236.301H361.784V225.934Z" fill="#06D19C"/>
<path opacity="0.5" d="M374.754 225.934H364.378V236.301H374.754V225.934Z" fill="#06D19C"/>
<path opacity="0.2" d="M387.724 225.934H377.348V236.301H387.724V225.934Z" fill="#06D19C"/>
<path opacity="0.5" d="M310.768 197.854V260.061C327.959 260.061 342.761 246.136 342.761 228.957C342.761 211.779 327.959 197.854 310.768 197.854Z" fill="#3F3D56"/>
<path d="M434.2 192.886C434.2 192.886 452.358 201.094 445.873 210.598C439.388 220.102 419.933 238.245 419.501 242.133C419.068 246.021 416.474 249.477 416.474 249.477C416.474 249.477 407.828 240.405 408.692 239.541C409.557 238.677 418.204 230.469 418.636 228.309C419.068 226.15 432.039 209.302 432.039 209.302L420.365 198.934L434.2 192.886Z" fill="#FFB9B9"/>
<path opacity="0.1" d="M434.2 192.886C434.2 192.886 452.358 201.094 445.873 210.598C439.388 220.102 419.933 238.245 419.501 242.133C419.068 246.021 416.474 249.477 416.474 249.477C416.474 249.477 407.828 240.405 408.692 239.541C409.557 238.677 418.204 230.469 418.636 228.309C419.068 226.15 432.039 209.302 432.039 209.302L420.365 198.934L434.2 192.886Z" fill="black"/>
<path d="M411.286 211.03C411.286 211.03 423.824 216.214 422.959 224.422C422.095 232.629 438.091 255.957 438.091 255.957C438.091 255.957 439.821 261.573 439.388 263.301C438.956 265.029 450.629 264.597 450.629 264.597V260.709C450.629 260.709 441.55 245.157 440.685 240.837C439.821 236.517 434.633 219.67 434.633 219.67C434.633 219.67 432.903 204.55 424.256 204.55C421.739 204.55 419.257 205.135 417.006 206.26C414.755 207.385 412.796 209.018 411.286 211.03Z" fill="#FFB9B9"/>
<path d="M411.935 171.934C411.935 171.934 437.875 193.102 437.01 194.83C436.146 196.558 423.608 203.038 421.446 203.47C419.285 203.902 403.989 171.934 403.989 171.934H411.935Z" fill="#2F2E41"/>
<path opacity="0.1" d="M411.935 171.934C411.935 171.934 437.875 193.102 437.01 194.83C436.146 196.558 423.608 203.038 421.446 203.47C419.285 203.902 403.989 171.934 403.989 171.934H411.935Z" fill="black"/>
<path d="M383.833 176.254C383.833 176.254 381.239 187.918 388.156 192.67C395.074 197.422 406.747 215.998 408.044 215.998C409.341 215.998 427.931 206.062 427.067 204.334C426.202 202.606 416.691 187.486 416.691 187.486L413.664 171.502C413.664 171.502 387.291 170.638 383.833 176.254Z" fill="#2F2E41"/>
<path d="M411.935 138.238L415.826 163.294L422.743 181.006C422.743 181.006 433.119 191.806 427.067 192.67C421.014 193.534 417.555 181.006 417.555 181.006L411.935 170.638V138.238Z" fill="#FFB9B9"/>
<path opacity="0.1" d="M411.935 138.238L415.826 163.294L422.743 181.006C422.743 181.006 433.119 191.806 427.067 192.67C421.014 193.534 417.555 181.006 417.555 181.006L411.935 170.638V138.238Z" fill="black"/>
<path d="M397.452 110.375C397.452 110.375 397.452 119.447 394.425 120.311C391.399 121.175 406.531 132.839 406.531 132.839C406.531 132.839 404.801 117.719 410.854 113.831L397.452 110.375Z" fill="#FFB9B9"/>
<path opacity="0.1" d="M397.452 110.375C397.452 110.375 397.452 119.447 394.425 120.311C391.399 121.175 406.531 132.839 406.531 132.839C406.531 132.839 404.801 117.719 410.854 113.831L397.452 110.375Z" fill="black"/>
<path d="M404.369 117.719C409.861 117.719 414.313 113.27 414.313 107.783C414.313 102.295 409.861 97.8469 404.369 97.8469C398.877 97.8469 394.425 102.295 394.425 107.783C394.425 113.27 398.877 117.719 404.369 117.719Z" fill="#FFB9B9"/>
<path d="M404.801 128.519C404.801 128.519 395.722 117.287 394.425 117.719C393.128 118.151 383.617 127.655 382.752 130.679C381.887 133.703 380.158 155.302 381.455 159.622C382.752 163.942 382.752 175.174 382.32 176.038C381.887 176.902 379.293 179.062 381.887 179.062C384.481 179.062 393.56 172.582 399.613 173.878C405.666 175.174 413.88 173.446 414.313 172.582C414.745 171.718 413.88 149.254 414.313 147.526C414.745 145.798 413.448 137.158 413.016 135.43C412.583 133.703 412.583 126.791 408.26 125.063L406.416 124.881L406.313 129.154L404.801 128.519Z" fill="#F9A826"/>
<path d="M385.778 150.982C385.778 150.982 386.643 164.374 393.128 169.99C399.613 175.606 413.448 185.11 414.313 186.838C415.177 188.566 423.392 197.638 425.121 193.75C425.623 192.538 425.744 191.202 425.468 189.919C425.217 188.645 424.707 187.435 423.971 186.364C423.235 185.293 422.287 184.384 421.186 183.693L417.339 181.222L398.316 161.35L397.451 150.982H385.778Z" fill="#FFB9B9"/>
<path d="M410.638 238.029C410.638 238.029 405.666 236.949 403.937 239.973C402.207 242.997 405.666 251.205 405.666 251.205C405.666 251.205 415.61 271.941 417.339 269.349C419.068 266.757 416.042 257.253 416.042 257.253C416.042 257.253 420.365 247.749 418.636 247.317C416.907 246.885 410.638 243.213 410.638 238.029Z" fill="#2F2E41"/>
<path d="M441.118 262.869C441.118 262.869 438.524 261.573 438.091 262.869C437.659 264.165 435.065 270.645 438.091 271.509C441.118 272.373 470.949 273.237 470.084 271.509C469.22 269.781 464.464 267.621 461.438 266.757C458.411 265.893 450.629 259.413 450.629 259.413C450.629 259.413 446.306 265.029 441.118 262.869Z" fill="#2F2E41"/>
<path d="M414.386 99.8971C414.199 99.2702 413.788 98.7339 413.231 98.3907C413.26 97.7192 413.177 97.0475 412.987 96.4028C412.352 94.526 410.847 94.6336 409.426 93.8038C408.81 93.4438 408.848 93.1257 408.528 92.5344C408.107 91.7592 407.478 91.1175 406.711 90.682C405.8 90.102 404.838 89.5047 403.76 89.4313C401.495 89.277 399.759 91.4057 397.594 92.0889C396.64 92.39 395.614 92.4024 394.655 92.6871C393.696 92.9718 392.739 93.6515 392.596 94.6411C392.53 95.098 392.646 95.5667 392.579 96.0234C392.446 96.9312 391.649 97.567 391.115 98.3137C389.936 99.9648 390.07 102.297 391.014 104.094C391.213 104.466 391.44 104.821 391.695 105.158C391.773 106.007 392.017 106.833 392.413 107.588C393.357 109.385 394.98 110.727 396.676 111.843C396.537 111.247 396.453 110.64 396.425 110.028C396.401 109.825 396.427 109.618 396.502 109.427C396.691 109.033 397.19 108.928 397.571 108.712C398.359 108.264 398.668 107.274 398.691 106.368C398.714 105.462 398.521 104.555 398.616 103.654C398.62 103.447 398.667 103.243 398.755 103.055C398.842 102.867 398.968 102.7 399.124 102.564C399.415 102.398 399.748 102.319 400.082 102.336C401.697 102.27 403.385 102.24 404.809 101.477C405.269 101.172 405.762 100.922 406.28 100.733C407.491 100.418 408.728 101.266 409.426 102.303C410.124 103.341 410.472 104.576 411.116 105.648C411.759 106.72 412.871 107.676 414.116 107.549C414.186 107.549 414.255 107.534 414.32 107.506C414.384 107.477 414.441 107.436 414.488 107.384C414.541 107.287 414.565 107.177 414.556 107.067L414.626 102.313C414.684 101.5 414.602 100.683 414.386 99.8971Z" fill="#2F2E41"/>
<path d="M389.669 128.951C389.669 128.951 399.181 133.271 398.748 142.342C398.316 151.414 401.342 152.278 393.993 153.142C386.643 154.006 384.914 153.142 384.481 154.006C384.049 154.87 381.455 134.135 383.184 131.975C384.914 129.815 389.669 128.951 389.669 128.951Z" fill="#F9A826"/>
<path d="M198.36 55.7274C206 55.7274 212.194 49.5382 212.194 41.9035C212.194 34.2688 206 28.0797 198.36 28.0797C190.719 28.0797 184.525 34.2688 184.525 41.9035C184.525 49.5382 190.719 55.7274 198.36 55.7274Z" fill="#2F2E41"/>
<path d="M207.655 193.318L199.873 214.486C199.873 214.486 193.388 219.67 197.279 221.398C201.17 223.126 208.952 219.67 208.952 219.67L215.005 204.118L214.14 193.318H207.655Z" fill="#2F2E41"/>
<path opacity="0.1" d="M207.655 193.318L199.873 214.486C199.873 214.486 193.388 219.67 197.279 221.398C201.17 223.126 208.952 219.67 208.952 219.67L215.005 204.118L214.14 193.318H207.655Z" fill="black"/>
<path d="M208.303 67.8232L214.788 68.6872C214.788 68.6872 217.815 92.447 216.518 94.175C215.221 95.9029 208.736 102.815 206.142 101.087C203.548 99.3589 208.303 67.8232 208.303 67.8232Z" fill="#575A89"/>
<path d="M146.263 111.239C146.263 111.239 137.184 115.127 135.454 115.559C133.725 115.991 131.131 120.311 134.157 121.175C137.184 122.039 148.857 113.399 148.857 113.399L146.263 111.239Z" fill="#A0616A"/>
<path d="M210.681 201.958L215.437 219.67C215.437 219.67 215.869 226.149 218.031 226.581C220.193 227.013 226.678 224.422 226.678 223.558C226.678 222.694 224.084 215.782 224.084 215.782C224.084 215.782 224.084 210.598 221.49 208.438C218.896 206.278 216.559 199.042 216.559 199.042L210.681 201.958Z" fill="#2F2E41"/>
<path d="M216.734 161.35C217.607 163.385 217.499 178.146 216.544 187.97C216.081 192.743 215.42 196.35 214.572 196.774L208.377 195.227L205.925 194.614L205.861 189.24L205.493 159.622L198.143 128.951V121.175L216.734 122.903L219.683 127.529L219.76 127.655C219.76 127.655 215.437 158.326 216.734 161.35Z" fill="#2F2E41"/>
<path opacity="0.1" d="M212.843 170.854C213.768 172.241 215.312 180.544 216.544 187.97C216.081 192.743 215.42 196.35 214.572 196.774L208.377 195.227C208.282 195.029 208.187 194.821 208.087 194.614C207.296 192.955 206.552 191.123 205.861 189.24L205.493 159.622L198.143 128.951V121.175L216.734 122.903L219.682 127.529L202.467 126.359L206.358 143.206L211.114 160.918C211.114 160.918 211.114 168.262 212.843 170.854Z" fill="black"/>
<path d="M182.147 103.895C182.147 103.895 176.094 117.287 184.741 135.863C190.091 147.422 194.853 159.245 199.008 171.286C199.008 171.286 202.034 185.542 206.358 194.614C210.681 203.686 209.817 204.118 209.817 204.118L216.734 200.23C216.734 200.23 212.843 173.446 211.114 170.854C209.384 168.262 209.384 160.918 209.384 160.918L204.628 143.206L200.737 126.359L219.76 127.655C219.76 127.655 219.76 103.031 211.114 98.2789L182.147 103.895Z" fill="#2F2E41"/>
<path d="M189.28 48.3835C189.28 48.3835 189.28 55.2954 187.119 55.7274C184.957 56.1594 180.634 56.1594 179.337 58.3194C178.04 60.4793 189.28 88.991 189.28 88.991L200.954 81.6471L204.845 62.2073C204.845 62.2073 199.224 58.7514 199.224 57.0234V49.2475L189.28 48.3835Z" fill="#A0616A"/>
<path opacity="0.1" d="M189.28 48.3835C189.28 48.3835 189.28 55.2954 187.119 55.7274C184.957 56.1594 180.634 56.1594 179.337 58.3194C178.04 60.4793 189.28 88.991 189.28 88.991L200.954 81.6471L204.845 62.2073C204.845 62.2073 199.224 58.7514 199.224 57.0234V49.2475L189.28 48.3835Z" fill="black"/>
<path d="M195.982 55.9434C201.712 55.9434 206.358 51.3015 206.358 45.5755C206.358 39.8495 201.712 35.2076 195.982 35.2076C190.251 35.2076 185.606 39.8495 185.606 45.5755C185.606 51.3015 190.251 55.9434 195.982 55.9434Z" fill="#A0616A"/>
<path d="M190.577 80.3511C190.577 80.3511 186.686 55.7274 185.822 55.7274C184.957 55.7274 172.852 58.3194 171.987 58.7514C171.122 59.1833 168.096 63.0713 168.096 63.0713L174.149 80.3511C174.149 80.3511 176.743 92.447 178.472 94.607C180.201 96.7669 183.66 102.815 181.931 103.679C180.201 104.543 178.472 105.839 180.201 105.839C181.931 105.839 196.198 103.247 197.063 104.543C197.927 105.839 212.194 99.7909 212.194 99.3589C212.194 98.9269 210.465 78.6231 210.465 78.6231L214.788 68.6872L201.818 59.6153L190.577 80.3511Z" fill="#575A89"/>
<path d="M172.419 60.9113L168.096 63.0713C168.096 63.0713 155.99 90.719 155.126 91.151C154.261 91.583 149.938 99.7909 149.505 101.519C149.073 103.247 148.208 108.863 146.911 109.727C146.216 110.199 145.494 110.632 144.75 111.023C144.75 111.023 147.344 115.343 148.641 115.343C149.938 115.343 154.261 109.295 154.261 109.295C154.261 109.295 163.772 115.343 166.366 110.591C168.961 105.839 175.446 75.5992 175.446 75.5992L172.419 60.9113Z" fill="#575A89"/>
<path d="M206.358 74.0872C206.358 74.0872 200.305 59.3993 196.846 61.1273C193.388 62.8553 199.44 73.2232 203.331 74.9512L206.358 74.0872Z" fill="#A0616A"/>
<path opacity="0.1" d="M200.305 74.5192L206.371 73.149L207.655 79.7031C207.655 79.7031 213.275 89.639 211.978 93.9589C210.681 98.2789 202.899 105.191 200.305 101.303C197.711 97.4149 195.549 91.367 197.279 87.911C199.008 84.4551 201.602 76.2471 200.305 74.5192Z" fill="black"/>
<path d="M201.602 73.6552L207.668 72.285L208.952 78.8391C208.952 78.8391 214.572 88.775 213.275 93.095C211.978 97.4149 204.196 104.327 201.602 100.439C199.008 96.5509 196.846 90.503 198.576 87.047C200.305 83.5911 202.899 75.3832 201.602 73.6552Z" fill="#575A89"/>
<path d="M208.188 43.4938C209.353 41.0092 206.09 37.0259 200.901 34.5968C195.712 32.1677 190.561 32.2127 189.396 34.6973C188.231 37.1819 191.493 41.1652 196.683 43.5943C201.872 46.0234 207.023 45.9784 208.188 43.4938Z" fill="#2F2E41"/>
<path d="M206.574 36.2876C209.917 36.2876 212.627 33.5798 212.627 30.2397C212.627 26.8995 209.917 24.1917 206.574 24.1917C203.231 24.1917 200.521 26.8995 200.521 30.2397C200.521 33.5798 203.231 36.2876 206.574 36.2876Z" fill="#2F2E41"/>
<path d="M200.954 28.0797C200.954 26.588 201.506 25.1491 202.503 24.0393C203.501 22.9295 204.874 22.2273 206.358 22.0675C205.513 21.9753 204.657 22.062 203.848 22.3221C203.038 22.5822 202.293 23.0098 201.66 23.577C201.027 24.1442 200.52 24.8383 200.174 25.6142C199.827 26.39 199.648 27.2301 199.648 28.0797C199.648 28.9293 199.827 29.7694 200.174 30.5452C200.52 31.321 201.027 32.0152 201.66 32.5824C202.293 33.1496 203.038 33.5772 203.848 33.8373C204.657 34.0974 205.513 34.1841 206.358 34.0919C204.874 33.9321 203.501 33.2298 202.503 32.1201C201.506 31.0103 200.954 29.5714 200.954 28.0797Z" fill="#2F2E41"/>
<path d="M179.337 119.663H28.0181V224.638H179.337V119.663Z" fill="#3F3D56"/>
<path d="M60.0112 130.031H40.1236V149.902H60.0112V130.031Z" fill="#F2F2F2"/>
<path d="M60.0112 162.43H40.1236V182.302H60.0112V162.43Z" fill="#F9A826"/>
<path d="M60.0112 194.83H40.1236V214.702H60.0112V194.83Z" fill="#F2F2F2"/>
<path d="M164.205 136.294H69.5226V138.022H164.205V136.294Z" fill="#F2F2F2"/>
<path d="M98.9216 141.91H69.5226V143.638H98.9216V141.91Z" fill="#F2F2F2"/>
<path d="M164.205 168.694H69.5226V170.422H164.205V168.694Z" fill="#F2F2F2"/>
<path d="M98.9216 174.31H69.5226V176.038H98.9216V174.31Z" fill="#F2F2F2"/>
<path d="M164.205 201.094H69.5226V202.822H164.205V201.094Z" fill="#F2F2F2"/>
<path d="M98.9216 206.71H69.5226V208.438H98.9216V206.71Z" fill="#F2F2F2"/>
<path d="M427.931 288.976C427.931 297.77 422.7 300.84 416.246 300.84C416.096 300.84 415.947 300.838 415.799 300.834C415.5 300.828 415.203 300.814 414.91 300.794C409.085 300.382 404.561 297.154 404.561 288.976C404.561 280.514 415.382 269.835 416.198 269.043L416.199 269.042C416.23 269.011 416.246 268.996 416.246 268.996C416.246 268.996 427.931 280.183 427.931 288.976Z" fill="#F9A826"/>
<path d="M415.82 299.494L420.094 293.528L415.809 300.15L415.799 300.834C415.5 300.828 415.203 300.814 414.91 300.794L415.371 291.997L415.367 291.928L415.375 291.916L415.419 291.084L411.123 284.446L415.432 290.461L415.443 290.637L415.79 283.99L412.113 277.131L415.835 282.824L416.198 269.043L416.199 268.996V269.042L416.138 279.909L419.799 275.601L416.123 280.845L416.027 286.796L419.446 281.085L416.013 287.672L415.959 290.981L420.92 283.031L415.939 292.135L415.82 299.494Z" fill="#3F3D56"/>
<path d="M48.7704 228.928C48.7704 237.722 43.5391 240.792 37.085 240.792C36.9355 240.792 36.786 240.79 36.6376 240.787C36.3386 240.781 36.0418 240.767 35.7493 240.746C29.9243 240.335 25.3997 237.106 25.3997 228.928C25.3997 220.467 36.2214 209.788 37.0366 208.996L37.0377 208.995C37.0689 208.964 37.085 208.948 37.085 208.948C37.085 208.948 48.7704 220.136 48.7704 228.928Z" fill="#F9A826"/>
<path d="M36.6591 239.447L40.9332 233.481L36.6484 240.103L36.6376 240.787C36.3386 240.781 36.0418 240.767 35.7492 240.746L36.2096 231.949L36.2063 231.88L36.2139 231.869L36.258 231.037L31.9624 224.399L36.2709 230.414L36.2816 230.59L36.629 223.943L32.9519 217.084L36.6742 222.777L37.0366 208.996L37.0377 208.949V208.995L36.9775 219.862L40.6385 215.553L36.9624 220.798L36.8656 226.749L40.2846 221.037L36.8516 227.625L36.7979 230.934L41.7592 222.983L36.7785 232.088L36.6591 239.447Z" fill="#3F3D56"/>
</svg>
