<svg width="439" height="346" viewBox="0 0 439 346" fill="none" xmlns="http://www.w3.org/2000/svg">
<g clip-path="url(#clip0)">
<path d="M80.0411 40.8091C79.2162 40.9001 78.4214 41.1707 77.7125 41.6019C77.0036 42.0331 76.398 42.6144 75.9382 43.3049C75.4784 43.9953 75.1757 44.7781 75.0514 45.5982C74.9271 46.4182 74.9842 47.2555 75.2187 48.0511L58.8065 59.7725L68.5894 63.5351L82.6749 51.8274C83.9861 51.3452 85.0747 50.3989 85.7345 49.1681C86.3942 47.9372 86.5793 46.5072 86.2547 45.1491C85.93 43.7909 85.1182 42.599 83.973 41.7991C82.8278 40.9992 81.4288 40.647 80.0411 40.8091L80.0411 40.8091Z" fill="#FFB8B8"/>
<path d="M78.5147 58.4646L58.157 78.9369C55.367 81.7245 51.6881 83.4471 47.7594 83.8055L22.6039 86.0994C21.6817 86.1873 20.7512 86.0896 19.8674 85.812C18.9836 85.5345 18.1645 85.0826 17.4584 84.4833C16.4815 83.6661 15.7551 82.5901 15.3626 81.3788C14.9701 80.1676 14.9274 78.8702 15.2394 77.6358C15.5515 76.4014 16.2056 75.28 17.1267 74.4005C18.0477 73.5209 19.1984 72.9189 20.4464 72.6635L46.1455 67.1945L69.5426 49.9573C69.8679 49.7743 70.2354 49.6795 70.6086 49.6823C70.9818 49.6851 71.3479 49.7853 71.6704 49.9731L78.0332 55.1825C78.416 55.3922 78.7235 55.7164 78.9126 56.1097C79.1017 56.5029 79.1629 56.9454 79.0875 57.3752C79.0133 57.7886 78.8133 58.169 78.5147 58.4646Z" fill="#2F2E41"/>
<path d="M322.591 69.4668C322.743 68.0692 322.46 66.659 321.782 65.4276C321.103 64.1963 320.062 63.2035 318.799 62.5844L192.105 0.696082C191.299 0.302134 190.424 0.0706422 189.528 0.0148304C188.633 -0.0409813 187.736 0.0799755 186.887 0.370797C186.039 0.661618 185.256 1.11661 184.584 1.70979C183.911 2.30297 183.362 3.02272 182.968 3.82795L182.966 3.8327L135.447 101.003C134.654 102.63 134.539 104.506 135.127 106.218C135.716 107.93 136.959 109.339 138.585 110.136L265.28 172.025C266.908 172.817 268.785 172.932 270.498 172.344C272.211 171.756 273.621 170.513 274.419 168.888L321.937 71.7183C322.285 71.0115 322.506 70.2495 322.591 69.4668Z" fill="#F2F2F2"/>
<path d="M248.369 285.136H83.9763C81.9067 285.133 79.9224 284.311 78.459 282.848C76.9955 281.385 76.1723 279.402 76.17 277.334V54.2875C76.1723 52.219 76.9955 50.2359 78.459 48.7732C79.9224 47.3105 81.9067 46.4878 83.9763 46.4855H248.369C250.439 46.4878 252.423 47.3105 253.886 48.7732C255.35 50.2359 256.173 52.219 256.175 54.2875V277.334C256.173 279.402 255.35 281.385 253.886 282.848C252.423 284.311 250.439 285.133 248.369 285.136Z" fill="white"/>
<path d="M127.579 112.996C133.502 112.996 138.304 108.197 138.304 102.276C138.304 96.3563 133.502 91.5571 127.579 91.5571C121.655 91.5571 116.854 96.3563 116.854 102.276C116.854 108.197 121.655 112.996 127.579 112.996Z" fill="#E6E6E6"/>
<path d="M111.232 131.574C112.748 132.435 114.334 133.165 115.973 133.757L116.263 133.858C119.565 135.016 123.04 135.606 126.54 135.602C127.244 135.602 127.923 135.578 128.557 135.53C130.099 135.435 131.632 135.224 133.142 134.898C133.971 134.717 134.797 134.5 135.596 134.255C135.79 134.198 135.969 134.142 136.165 134.081C139.423 133.025 142.484 131.439 145.226 129.388C145.006 128.972 144.765 128.567 144.504 128.176C143.094 126.023 141.17 124.255 138.904 123.033C136.639 121.811 134.105 121.173 131.53 121.176H125.885C122.908 121.177 119.993 122.033 117.489 123.642C114.984 125.251 112.995 127.546 111.759 130.253C111.561 130.684 111.385 131.125 111.232 131.574Z" fill="#E6E6E6"/>
<path d="M131.218 134.631C130.858 134.658 130.512 134.779 130.214 134.983C131.727 134.889 133.231 134.68 134.713 134.359L131.218 134.631Z" fill="#2F2E41"/>
<path d="M128.229 73.1876C121.321 73.1883 114.607 75.468 109.128 79.6728C103.65 83.8777 99.7132 89.7725 97.9297 96.4422C96.1461 103.112 96.6154 110.184 99.2647 116.56C101.914 122.935 106.595 128.259 112.581 131.704C114.17 132.624 115.839 133.4 117.566 134.023L117.859 134.124C121.191 135.293 124.698 135.889 128.229 135.884C128.912 135.884 129.595 135.862 130.267 135.811C131.822 135.716 133.367 135.502 134.89 135.174C135.742 134.987 136.578 134.767 137.368 134.525C137.56 134.468 137.74 134.412 137.938 134.35C145.038 132.039 151.079 127.272 154.978 120.908C158.876 114.543 160.375 106.997 159.205 99.6268C158.035 92.2565 154.273 85.545 148.595 80.6987C142.917 75.8524 135.696 73.1891 128.229 73.1876L128.229 73.1876ZM146.428 128.02C143.722 130.107 140.676 131.712 137.425 132.764C137.25 132.821 137.069 132.877 136.888 132.934C136.137 133.165 135.347 133.368 134.534 133.543C133.094 133.857 131.631 134.061 130.16 134.152C129.522 134.197 128.872 134.22 128.229 134.22C124.886 134.222 121.568 133.659 118.413 132.556L118.136 132.46C116.418 131.843 114.762 131.064 113.191 130.135C107.719 126.915 103.424 122.026 100.938 116.186C98.4521 110.346 97.906 103.863 99.3799 97.6892C100.854 91.5158 104.27 85.9776 109.127 81.8886C113.983 77.7995 120.024 75.3752 126.362 74.9718C132.699 74.5684 138.999 76.2072 144.335 79.6474C149.672 83.0877 153.763 88.1479 156.009 94.0846C158.255 100.021 158.536 106.521 156.811 112.629C155.087 118.738 151.447 124.132 146.428 128.02V128.02Z" fill="#CCCCCC"/>
<path d="M248.369 285.136H83.9763C81.9067 285.133 79.9224 284.311 78.459 282.848C76.9955 281.385 76.1723 279.402 76.17 277.334V54.2875C76.1723 52.219 76.9955 50.2359 78.459 48.7732C79.9224 47.3105 81.9067 46.4878 83.9763 46.4855H248.369C250.439 46.4878 252.423 47.3105 253.886 48.7732C255.35 50.2359 256.173 52.219 256.175 54.2875V277.334C256.173 279.402 255.35 281.385 253.886 282.848C252.423 284.311 250.439 285.133 248.369 285.136ZM83.9763 47.4034C82.1502 47.4054 80.3994 48.1314 79.1081 49.422C77.8168 50.7125 77.0904 52.4623 77.0884 54.2875V277.334C77.0904 279.159 77.8168 280.909 79.1081 282.199C80.3994 283.49 82.1502 284.216 83.9763 284.218H248.369C250.195 284.216 251.946 283.49 253.237 282.199C254.528 280.909 255.255 279.159 255.257 277.334V54.2875C255.255 52.4623 254.528 50.7125 253.237 49.422C251.946 48.1314 250.195 47.4054 248.369 47.4034L83.9763 47.4034Z" fill="#CCCCCC"/>
<path d="M216.545 104.415H170.027C169.051 104.415 168.115 104.027 167.425 103.338C166.735 102.648 166.347 101.712 166.347 100.737C166.347 99.7615 166.735 98.826 167.425 98.1362C168.115 97.4465 169.051 97.059 170.027 97.059H216.545C217.521 97.059 218.457 97.4465 219.147 98.1362C219.837 98.826 220.225 99.7615 220.225 100.737C220.225 101.712 219.837 102.648 219.147 103.338C218.457 104.027 217.521 104.415 216.545 104.415Z" fill="#E6E6E6"/>
<path d="M231.725 116.828H170.027C169.051 116.828 168.115 116.441 167.425 115.751C166.735 115.061 166.347 114.126 166.347 113.15C166.347 112.175 166.735 111.239 167.425 110.55C168.115 109.86 169.051 109.472 170.027 109.472H231.725C232.701 109.472 233.637 109.86 234.327 110.55C235.017 111.239 235.405 112.175 235.405 113.15C235.405 114.126 235.017 115.061 234.327 115.751C233.637 116.441 232.701 116.828 231.725 116.828Z" fill="#E6E6E6"/>
<path d="M216.477 164.439H100.621C99.6445 164.439 98.7085 164.051 98.0184 163.361C97.3282 162.672 96.9405 161.736 96.9405 160.761C96.9405 159.785 97.3282 158.85 98.0184 158.16C98.7085 157.47 99.6445 157.083 100.621 157.083H216.477C217.453 157.083 218.389 157.47 219.079 158.16C219.769 158.85 220.157 159.785 220.157 160.761C220.157 161.736 219.769 162.672 219.079 163.361C218.389 164.051 217.453 164.439 216.477 164.439Z" fill="#E6E6E6"/>
<path d="M231.657 176.852H100.621C99.6445 176.852 98.7085 176.464 98.0184 175.775C97.3282 175.085 96.9405 174.149 96.9405 173.174C96.9405 172.198 97.3282 171.263 98.0184 170.573C98.7085 169.883 99.6445 169.496 100.621 169.496H231.657C232.633 169.496 233.569 169.883 234.259 170.573C234.949 171.263 235.337 172.198 235.337 173.174C235.337 174.149 234.949 175.085 234.259 175.775C233.569 176.464 232.633 176.852 231.657 176.852Z" fill="#E6E6E6"/>
<path d="M216.477 205.382H100.621C99.6445 205.382 98.7085 204.995 98.0184 204.305C97.3282 203.615 96.9405 202.68 96.9405 201.704C96.9405 200.729 97.3282 199.793 98.0184 199.104C98.7085 198.414 99.6445 198.026 100.621 198.026H216.477C217.453 198.026 218.389 198.414 219.079 199.104C219.769 199.793 220.157 200.729 220.157 201.704C220.157 202.68 219.769 203.615 219.079 204.305C218.389 204.995 217.453 205.382 216.477 205.382Z" fill="#E6E6E6"/>
<path d="M231.657 217.796H100.621C99.6445 217.796 98.7085 217.408 98.0184 216.719C97.3282 216.029 96.9405 215.093 96.9405 214.118C96.9405 213.142 97.3282 212.207 98.0184 211.517C98.7085 210.827 99.6445 210.44 100.621 210.44H231.657C232.633 210.44 233.569 210.827 234.259 211.517C234.949 212.207 235.337 213.142 235.337 214.118C235.337 215.093 234.949 216.029 234.259 216.719C233.569 217.408 232.633 217.796 231.657 217.796Z" fill="#E6E6E6"/>
<path d="M216.477 246.326H100.621C99.6445 246.326 98.7085 245.939 98.0184 245.249C97.3282 244.559 96.9405 243.624 96.9405 242.648C96.9405 241.673 97.3282 240.737 98.0184 240.048C98.7085 239.358 99.6445 238.97 100.621 238.97H216.477C217.453 238.97 218.389 239.358 219.079 240.048C219.769 240.737 220.157 241.673 220.157 242.648C220.157 243.624 219.769 244.559 219.079 245.249C218.389 245.939 217.453 246.326 216.477 246.326Z" fill="#E6E6E6"/>
<path d="M231.657 258.74H100.621C99.6445 258.74 98.7085 258.352 98.0184 257.662C97.3282 256.973 96.9405 256.037 96.9405 255.062C96.9405 254.086 97.3282 253.151 98.0184 252.461C98.7085 251.771 99.6445 251.384 100.621 251.384H231.657C232.632 251.385 233.567 251.773 234.256 252.462C234.945 253.152 235.332 254.087 235.332 255.062C235.332 256.036 234.945 256.971 234.256 257.661C233.567 258.35 232.632 258.738 231.657 258.74Z" fill="#E6E6E6"/>
<path d="M316.946 133.218C317.098 131.821 316.815 130.411 316.137 129.179C315.458 127.948 314.417 126.955 313.154 126.336L186.46 64.4478C185.654 64.0538 184.779 63.8224 183.884 63.7665C182.988 63.7107 182.091 63.8317 181.242 64.1225C180.394 64.4133 179.611 64.8683 178.939 65.4615C178.266 66.0547 177.717 66.7744 177.323 67.5797L177.321 67.5844L129.802 164.754C129.009 166.382 128.894 168.257 129.482 169.97C130.071 171.682 131.314 173.091 132.941 173.888L259.635 235.777C261.264 236.569 263.14 236.684 264.853 236.096C266.566 235.508 267.976 234.265 268.774 232.64L316.293 135.47C316.64 134.763 316.861 134.001 316.946 133.218Z" fill="white"/>
<path d="M316.946 133.218C317.098 131.821 316.815 130.411 316.137 129.179C315.458 127.948 314.417 126.955 313.154 126.336L186.46 64.4478C185.654 64.0538 184.779 63.8224 183.884 63.7665C182.988 63.7107 182.091 63.8317 181.242 64.1225C180.394 64.4133 179.611 64.8683 178.939 65.4615C178.266 66.0547 177.717 66.7744 177.323 67.5797L177.321 67.5844L129.802 164.754C129.009 166.382 128.894 168.257 129.482 169.97C130.071 171.682 131.314 173.091 132.941 173.888L259.635 235.777C261.264 236.569 263.14 236.684 264.853 236.096C266.566 235.508 267.976 234.265 268.774 232.64L316.293 135.47C316.64 134.763 316.861 134.001 316.946 133.218ZM268.052 232.287C267.348 233.721 266.104 234.818 264.592 235.337C263.081 235.856 261.425 235.754 259.988 235.055L133.294 173.166C131.858 172.463 130.761 171.22 130.242 169.709C129.723 168.198 129.824 166.543 130.524 165.107L178.043 67.9372C178.747 66.5029 179.991 65.406 181.502 64.8871C183.014 64.3683 184.67 64.4699 186.107 65.1696L312.801 127.058C314.236 127.761 315.334 129.005 315.853 130.515C316.372 132.026 316.271 133.681 315.57 135.117L268.052 232.287Z" fill="#3F3D56"/>
<path d="M303.128 137.637L269.947 205.487C269.725 205.94 269.333 206.287 268.856 206.451C268.379 206.615 267.857 206.582 267.403 206.361H267.403L152.158 150.065C152.075 150.026 151.996 149.98 151.922 149.927C151.544 149.67 151.272 149.285 151.154 148.843C151.037 148.402 151.083 147.933 151.284 147.522L184.465 79.6716C184.574 79.4473 184.727 79.2468 184.914 79.0815C185.101 78.9162 185.319 78.7894 185.555 78.7082C185.791 78.6271 186.041 78.5932 186.291 78.6086C186.54 78.6239 186.784 78.6882 187.008 78.7978L302.254 135.094C302.707 135.315 303.054 135.707 303.218 136.184C303.382 136.66 303.349 137.183 303.128 137.636V137.636L303.128 137.637Z" fill="#E6E6E6"/>
<path d="M201.95 134.191C211.168 134.191 218.64 126.723 218.64 117.51C218.64 108.298 211.168 100.829 201.95 100.829C192.733 100.829 185.26 108.298 185.26 117.51C185.26 126.723 192.733 134.191 201.95 134.191Z" fill="#F9A826"/>
<path d="M226.388 186.663L152.827 150.73C152.735 150.686 152.646 150.634 152.563 150.574L216.807 107.339C217.203 107.068 217.664 106.907 218.143 106.871C218.621 106.836 219.101 106.929 219.532 107.139C219.963 107.35 220.331 107.671 220.597 108.07C220.863 108.469 221.019 108.932 221.048 109.411L224.631 161.235L224.804 163.715L226.388 186.663Z" fill="#3F3D56"/>
<path opacity="0.2" d="M226.388 186.663L201.272 174.394L222.354 162.518L223.872 161.663L224.631 161.235L224.804 163.715L226.388 186.663Z" fill="black"/>
<path d="M267.345 206.67L203.722 175.591L224.804 163.715L226.321 162.859L253.794 147.382C255.595 146.368 258.175 147.51 258.76 149.451C258.799 149.582 258.829 149.717 258.851 149.852L267.345 206.67Z" fill="#3F3D56"/>
<path d="M71.0373 212.592L77.9574 212.592L81.25 185.913L71.0356 185.914L71.0373 212.592Z" fill="#FFB8B8"/>
<path d="M69.2718 210.334L82.9007 210.334H82.9012C84.0418 210.334 85.1712 210.558 86.225 210.994C87.2788 211.431 88.2363 212.07 89.0428 212.876C89.8493 213.682 90.4891 214.639 90.9256 215.692C91.3621 216.745 91.5867 217.874 91.5867 219.014V219.296L69.2722 219.297L69.2718 210.334Z" fill="#2F2E41"/>
<path d="M17.2457 208.188L24.4158 209.59L33.2376 182.617L22.6557 180.548L17.2457 208.188Z" fill="#FFB8B8"/>
<path d="M15.8749 205.491L29.9952 208.252L29.9958 208.252C31.1775 208.483 32.3021 208.944 33.3054 209.61C34.3087 210.275 35.171 211.131 35.8431 212.13C36.5152 213.129 36.984 214.25 37.2226 215.429C37.4612 216.609 37.465 217.824 37.2338 219.005L37.1766 219.297L14.0575 214.777L15.8749 205.491Z" fill="#2F2E41"/>
<path d="M81.1055 120.563C80.8712 119.768 80.4652 119.033 79.9161 118.411C79.367 117.789 78.6881 117.295 77.9274 116.964C77.1666 116.633 76.3424 116.472 75.5128 116.494C74.6833 116.515 73.8685 116.718 73.126 117.089L58.7009 102.996L56.7106 113.282L70.714 125.088C71.4191 126.293 72.5421 127.198 73.8703 127.632C75.1985 128.065 76.6396 127.996 77.9204 127.439C79.2013 126.881 80.233 125.873 80.8201 124.606C81.4071 123.339 81.5087 121.9 81.1055 120.563Z" fill="#FFB8B8"/>
<path d="M27.587 48.0264C35.2441 48.0264 41.4514 41.8226 41.4514 34.1697C41.4514 26.5168 35.2441 20.313 27.587 20.313C19.93 20.313 13.7227 26.5168 13.7227 34.1697C13.7227 41.8226 19.93 48.0264 27.587 48.0264Z" fill="#FFB8B8"/>
<path d="M24.6757 48.2385C25.4123 48.5607 26.9208 42.6942 26.2451 41.5208C25.2401 39.7759 25.2996 39.7884 24.6324 38.634C23.9653 37.4795 23.8161 35.8993 24.68 34.8836C25.5438 33.8678 27.543 34.0025 27.9373 35.2761C27.6837 32.857 30.0778 30.9125 32.4492 30.366C34.8207 29.8196 37.3221 30.1588 39.7067 29.6726C42.474 29.1082 45.3533 26.7898 44.2492 23.7483C44.0597 23.242 43.776 22.776 43.4132 22.3751C42.1375 20.9415 40.353 20.3294 38.6083 19.7376C34.9786 18.5063 31.2496 17.2595 27.4189 17.3954C24.2626 17.5604 21.223 18.6413 18.6718 20.506C16.1207 22.3707 14.1687 24.9382 13.0548 27.8943C12.7908 28.6338 12.5863 29.3933 12.4432 30.1653C11.1284 37.2312 15.2339 44.2008 21.9019 46.8915L24.6757 48.2385Z" fill="#2F2E41"/>
<path d="M21.2716 124.359C20.918 124.145 20.6347 123.833 20.4564 123.461C20.2781 123.088 20.2126 122.671 20.2681 122.262L14.0119 91.2883L7.67021 67.5169H7.67034C6.97414 64.9121 7.18441 62.1482 8.26665 59.6786C9.34889 57.209 11.2388 55.1803 13.6264 53.9255L17.8189 49.9608L26.9649 53.899L31.3109 58.3154C34.428 59.8324 37.1931 61.9844 39.4284 64.6331C41.6637 67.2818 43.3198 70.3687 44.2902 73.6953L51.2607 97.5344L67.3584 121.47C67.6272 121.869 67.7529 122.348 67.715 122.827C67.6771 123.306 67.4779 123.759 67.1499 124.111C64.9104 126.518 21.2716 124.359 21.2716 124.359Z" fill="#2F2E41"/>
<path d="M63.4464 122.159L39.7092 105.719C36.4739 103.463 34.1317 100.145 33.0896 96.3421L26.4173 71.9928C26.1689 71.1008 26.102 70.1681 26.2204 69.2498C26.3388 68.3315 26.6401 67.4463 27.1067 66.6464C27.7403 65.5418 28.6727 64.6383 29.797 64.0396C30.9213 63.4409 32.1918 63.1714 33.4624 63.2619C34.7331 63.3524 35.9525 63.7993 36.9804 64.5513C38.0084 65.3033 38.8033 66.3298 39.2737 67.513L49.1689 91.8403L70.2526 111.838C70.4899 112.126 70.6477 112.471 70.7104 112.839C70.7732 113.207 70.7386 113.584 70.6102 113.935L66.5949 121.109C66.4555 121.523 66.1901 121.882 65.8359 122.137C65.4817 122.392 65.0565 122.53 64.62 122.531C64.1998 122.531 63.7899 122.401 63.4464 122.159Z" fill="#2F2E41"/>
<path d="M14.1328 204.059C13.9387 203.781 13.8144 203.461 13.7705 203.125C13.7265 202.789 13.7641 202.447 13.8801 202.128L24.8615 162.23L25.6732 123.136L62.6394 120.602L62.8188 120.59L73.9528 140.758C77.4387 147.064 79.5727 154.026 80.2188 161.201L83.888 201.387C83.9435 201.933 83.7823 202.48 83.4392 202.908C83.0961 203.337 82.5984 203.614 82.053 203.68L70.9069 204.74C70.3698 204.805 69.8285 204.658 69.3984 204.33C68.9682 204.002 68.6833 203.519 68.6044 202.984L64.0783 162.148L47.7931 134.647L42.3265 163.6L31.0013 203.582C30.8533 203.981 30.5872 204.326 30.2385 204.57C29.8899 204.815 29.4751 204.948 29.0492 204.951L15.8401 204.956C15.5038 204.958 15.1722 204.877 14.8745 204.721C14.5769 204.564 14.3221 204.337 14.1328 204.059Z" fill="#2F2E41"/>
<path d="M297.183 335.281H18.6281C13.6893 335.275 8.95444 333.312 5.4622 329.822C1.96997 326.331 0.00557882 321.599 0 316.663V163.772C0.00557882 158.836 1.96997 154.103 5.4622 150.613C8.95444 147.123 13.6893 145.159 18.6281 145.154H52.7811C57.4151 145.15 61.8835 146.876 65.3099 149.994L102.347 176.426C104.761 178.632 107.915 179.853 111.186 179.851H298.912C301.381 179.851 303.826 180.341 306.104 181.294C308.381 182.247 310.447 183.642 312.18 185.4C313.913 187.158 315.28 189.242 316.199 191.533C317.119 193.823 317.574 196.273 317.538 198.74L315.809 316.935C315.717 321.819 313.717 326.473 310.236 329.901C306.755 333.33 302.07 335.261 297.183 335.281Z" fill="white"/>
<path d="M294.708 326.254H20.2761C17.8936 326.251 15.6094 325.304 13.9247 323.62C12.2401 321.937 11.2924 319.654 11.2897 317.273V161.881C11.2924 159.5 12.2401 157.217 13.9247 155.533C15.6094 153.85 17.8936 152.903 20.2761 152.9C22.3833 152.902 24.4037 153.74 25.8937 155.229C27.3838 156.718 28.222 158.738 28.2243 160.844V306.553C28.2269 308.785 29.115 310.924 30.6939 312.502C32.2727 314.08 34.4134 314.968 36.6462 314.97H293.781C295.058 314.956 296.304 315.37 297.318 316.146C298.333 316.922 299.058 318.015 299.378 319.251C299.737 320.423 299.692 321.681 299.251 322.825C298.811 323.969 297.999 324.932 296.947 325.561C296.279 325.995 295.504 326.235 294.708 326.254Z" fill="#F2F2F2"/>
<path d="M159.989 251.629L159.267 250.907C159.117 250.767 159.029 250.573 159.023 250.368C159.016 250.163 159.091 249.964 159.231 249.814C159.243 249.802 159.255 249.79 159.267 249.778L165.606 243.437C165.675 243.363 165.759 243.303 165.851 243.261C165.944 243.22 166.044 243.196 166.145 243.193C166.247 243.19 166.348 243.206 166.443 243.242C166.538 243.278 166.625 243.332 166.699 243.401C166.712 243.413 166.723 243.425 166.735 243.437L173.074 249.773C173.148 249.844 173.208 249.93 173.249 250.024C173.29 250.119 173.312 250.22 173.314 250.323C173.316 250.426 173.297 250.528 173.259 250.624C173.222 250.72 173.165 250.808 173.094 250.882L173.074 250.901L172.352 251.623C172.28 251.697 172.195 251.757 172.1 251.798C172.006 251.839 171.904 251.861 171.801 251.863C171.698 251.864 171.596 251.846 171.5 251.808C171.404 251.771 171.316 251.714 171.242 251.643L171.223 251.623L167.475 247.674V257.045C167.475 257.147 167.456 257.249 167.417 257.343C167.379 257.438 167.322 257.524 167.25 257.597C167.179 257.67 167.093 257.728 166.999 257.768C166.905 257.808 166.804 257.828 166.701 257.829L166.696 257.829H165.651C165.443 257.829 165.244 257.747 165.096 257.599C164.949 257.452 164.867 257.253 164.867 257.045V247.685L161.118 251.635C160.973 251.783 160.775 251.869 160.567 251.871C160.358 251.874 160.158 251.794 160.009 251.649L159.989 251.629Z" fill="#F9A826"/>
<path d="M166.159 237.677C168.704 237.677 171.191 238.431 173.307 239.844C175.422 241.257 177.071 243.265 178.045 245.614C179.018 247.963 179.273 250.549 178.777 253.043C178.28 255.537 177.055 257.828 175.256 259.626C173.457 261.424 171.165 262.649 168.669 263.145C166.174 263.641 163.587 263.386 161.236 262.413C158.885 261.44 156.876 259.792 155.463 257.678C154.049 255.563 153.295 253.077 153.295 250.534C153.298 247.125 154.654 243.857 157.066 241.446C159.478 239.035 162.748 237.68 166.159 237.677ZM166.159 235.984C163.28 235.984 160.465 236.838 158.071 238.436C155.677 240.035 153.811 242.308 152.709 244.966C151.607 247.625 151.319 250.551 151.881 253.373C152.443 256.195 153.829 258.788 155.865 260.823C157.901 262.858 160.495 264.243 163.319 264.805C166.143 265.366 169.07 265.078 171.73 263.977C174.391 262.876 176.664 261.011 178.264 258.618C179.864 256.225 180.717 253.412 180.717 250.534C180.717 246.676 179.184 242.975 176.453 240.246C173.723 237.517 170.02 235.984 166.159 235.984Z" fill="#3F3D56"/>
<path d="M297.183 335.281H18.6281C13.6893 335.275 8.95444 333.312 5.4622 329.822C1.96997 326.331 0.00557882 321.599 0 316.663V163.772C0.00557882 158.836 1.96997 154.103 5.4622 150.613C8.95444 147.123 13.6893 145.159 18.6281 145.154H52.7811C57.4151 145.15 61.8835 146.876 65.3099 149.994L102.347 176.426C104.761 178.632 107.915 179.853 111.186 179.851H298.912C301.381 179.851 303.826 180.341 306.104 181.294C308.381 182.247 310.447 183.642 312.18 185.4C313.913 187.158 315.28 189.242 316.199 191.533C317.119 193.823 317.574 196.273 317.538 198.74L315.809 316.935C315.717 321.819 313.717 326.473 310.236 329.901C306.755 333.33 302.07 335.261 297.183 335.281ZM18.6281 146.282C13.9886 146.287 9.54075 148.132 6.26017 151.411C2.97959 154.689 1.13425 159.135 1.12897 163.772V316.663C1.13425 321.3 2.97959 325.745 6.26017 329.024C9.54075 332.303 13.9886 334.147 18.6281 334.152H297.183C301.774 334.134 306.175 332.32 309.445 329.099C312.715 325.878 314.594 321.506 314.68 316.919L316.409 198.724C316.443 196.406 316.016 194.104 315.152 191.953C314.288 189.802 313.004 187.843 311.376 186.192C309.748 184.541 307.808 183.23 305.668 182.335C303.528 181.44 301.232 180.979 298.912 180.979H111.186C107.645 180.982 104.231 179.664 101.611 177.283L64.5743 150.851C61.3526 147.908 57.1453 146.278 52.7811 146.282H18.6281Z" fill="#3F3D56"/>
<path d="M320.79 338.257H313.869L311.706 311.578L320.791 311.579L320.79 338.257Z" fill="#FFB8B8"/>
<path d="M322.554 344.962L300.24 344.961V344.679C300.24 343.539 300.465 342.411 300.901 341.357C301.338 340.304 301.977 339.347 302.784 338.541C303.59 337.735 304.548 337.096 305.602 336.659C306.655 336.223 307.785 335.999 308.925 335.999H308.926L322.555 335.999L322.554 344.962Z" fill="#2F2E41"/>
<path d="M398.124 338.257H391.204L387.912 311.578L398.126 311.579L398.124 338.257Z" fill="#FFB8B8"/>
<path d="M399.889 344.962L377.575 344.961V344.679C377.575 343.539 377.799 342.411 378.236 341.357C378.672 340.304 379.312 339.347 380.119 338.541C380.925 337.735 381.883 337.096 382.936 336.659C383.99 336.223 385.12 335.999 386.26 335.999H386.261L399.89 335.999L399.889 344.962Z" fill="#2F2E41"/>
<path d="M375.369 255.783C376.325 254.664 376.863 253.249 376.893 251.778C376.923 250.307 376.443 248.872 375.534 247.715C375.349 247.493 375.147 247.287 374.929 247.099L380.142 227.865L371.454 230.746L367.836 248.569C367.236 249.668 366.97 250.918 367.072 252.166C367.174 253.414 367.639 254.605 368.41 255.592C368.814 256.125 369.332 256.56 369.926 256.866C370.52 257.172 371.176 257.34 371.844 257.358C372.512 257.377 373.176 257.245 373.786 256.972C374.396 256.699 374.937 256.293 375.369 255.783Z" fill="#FFB8B8"/>
<path d="M375.035 243.952C374.926 243.952 374.817 243.943 374.709 243.927L370.183 243.245C369.83 243.184 369.496 243.048 369.202 242.844C368.908 242.641 368.662 242.376 368.482 242.067C368.09 241.411 367.949 240.635 368.085 239.883L373.733 208.355L369.903 188.101C369.164 184.203 371.069 180.266 374.334 178.943C375.303 178.547 376.358 178.409 377.396 178.542C378.434 178.675 379.42 179.074 380.258 179.702C381.161 180.385 381.91 181.252 382.457 182.244C383.004 183.236 383.336 184.332 383.431 185.461L386.142 211.287L386.109 211.399L377.384 242.005C377.259 242.541 376.961 243.021 376.537 243.373C376.113 243.724 375.585 243.927 375.035 243.952Z" fill="#F9A826"/>
<path d="M373.698 167.781C381.355 167.781 387.562 161.577 387.562 153.924C387.562 146.272 381.355 140.068 373.698 140.068C366.041 140.068 359.834 146.272 359.834 153.924C359.834 161.577 366.041 167.781 373.698 167.781Z" fill="#FFB8B8"/>
<path d="M366.599 218.336C366.254 218.336 365.912 218.273 365.59 218.149L343.676 209.725C343.083 209.498 342.583 209.078 342.259 208.533C341.935 207.987 341.806 207.348 341.891 206.719L342.771 200.122C342.249 197.783 342.297 195.354 342.911 193.037C343.525 190.721 344.687 188.586 346.299 186.813L346.833 186.226L353.316 174.41C353.755 173.61 354.349 172.904 355.062 172.334C355.776 171.764 356.595 171.34 357.473 171.088C358.351 170.836 359.27 170.76 360.178 170.865C361.085 170.969 361.963 171.252 362.761 171.698L374.21 178.092C375.717 178.933 376.854 180.306 377.399 181.943C378.94 186.576 378.826 191.6 377.076 196.158L369.237 216.528C369.03 217.059 368.667 217.516 368.197 217.838C367.726 218.161 367.17 218.334 366.599 218.336Z" fill="#F9A826"/>
<path d="M309.17 331.707L309.14 331.701C308.766 331.629 308.411 331.483 308.095 331.27C307.78 331.057 307.511 330.783 307.304 330.464C307.097 330.144 306.957 329.786 306.892 329.412C306.827 329.037 306.839 328.653 306.926 328.283L323.719 254.918C326.468 243.287 330.266 231.93 335.066 220.985L342.211 204.705L368.869 216.868L372.675 223.826C375.643 231.575 377.169 239.801 377.178 248.098L404.266 327.439C404.398 327.826 404.444 328.238 404.402 328.645C404.359 329.052 404.228 329.445 404.018 329.796C403.808 330.148 403.524 330.449 403.186 330.68C402.847 330.911 402.463 331.065 402.059 331.132L387.23 330.965C387.09 330.99 386.949 331.002 386.806 331.001C386.244 331.001 385.695 330.833 385.23 330.517C384.765 330.202 384.405 329.754 384.198 329.232L353.233 249.014C353.189 248.908 353.113 248.817 353.016 248.755C352.919 248.692 352.806 248.661 352.69 248.665C352.577 248.667 352.468 248.703 352.377 248.769C352.286 248.836 352.217 248.929 352.181 249.035L322.8 329.652C322.575 330.279 322.134 330.806 321.556 331.137C320.978 331.469 320.301 331.585 319.646 331.463L309.17 331.707Z" fill="#2F2E41"/>
<path d="M329.443 241.486C330.224 241.208 330.936 240.762 331.527 240.18C332.117 239.598 332.573 238.893 332.862 238.115C333.151 237.338 333.265 236.506 333.198 235.68C333.13 234.853 332.882 234.051 332.471 233.331L345.75 218.154L335.363 216.739L324.346 231.368C323.181 232.138 322.339 233.309 321.98 234.658C321.621 236.008 321.769 237.442 322.397 238.689C323.026 239.937 324.09 240.91 325.388 241.426C326.687 241.941 328.129 241.963 329.443 241.486Z" fill="#FFB8B8"/>
<path d="M335.702 230.795C335.24 230.795 334.785 230.681 334.377 230.465L329.704 227.974C329.361 227.791 329.06 227.539 328.819 227.235C328.578 226.93 328.402 226.579 328.303 226.203C328.204 225.828 328.184 225.436 328.243 225.052C328.303 224.668 328.441 224.301 328.649 223.973L345.908 196.793L348.901 176.281C349.055 175.221 349.424 174.203 349.984 173.29C350.543 172.376 351.283 171.585 352.157 170.966C353.032 170.346 354.023 169.91 355.07 169.684C356.118 169.459 357.201 169.448 358.253 169.652C359.306 169.857 360.305 170.273 361.192 170.875C362.079 171.477 362.834 172.253 363.412 173.155C363.99 174.057 364.379 175.067 364.555 176.124C364.731 177.181 364.69 178.262 364.436 179.303L358.257 204.584L337.9 229.749C337.635 230.077 337.301 230.341 336.92 230.522C336.54 230.703 336.123 230.796 335.702 230.795Z" fill="#F9A826"/>
<path d="M361.219 142.491C362.822 137.235 372.088 134.89 379.789 137.071C387.49 139.252 393.023 144.97 394.311 150.56C397.163 162.939 382.287 172.986 384.983 185.367C386.766 193.558 397.083 201.303 408.703 203.173C395.897 205.851 380.268 203.497 368.393 197.103C361.002 193.123 354.801 187.118 354.895 181.06C354.952 177.393 357.286 174.15 360.141 171.348C362.996 168.546 366.413 166.055 369.033 163.13C371.653 160.206 373.468 156.704 372.703 152.991C371.939 149.279 368.055 145.407 362.828 144.327L361.219 142.491Z" fill="#2F2E41"/>
<path d="M438.435 346H223.366C223.216 346 223.073 345.94 222.967 345.835C222.861 345.729 222.801 345.585 222.801 345.436C222.801 345.286 222.861 345.143 222.967 345.037C223.073 344.931 223.216 344.872 223.366 344.872H438.435C438.585 344.872 438.729 344.931 438.835 345.037C438.94 345.143 439 345.286 439 345.436C439 345.585 438.94 345.729 438.835 345.835C438.729 345.94 438.585 346 438.435 346Z" fill="#CCCCCC"/>
</g>
<defs>
<clipPath id="clip0">
<rect width="439" height="346" fill="white"/>
</clipPath>
</defs>
</svg>
