<svg width="38" height="38" viewBox="0 0 38 38" fill="none" xmlns="http://www.w3.org/2000/svg">
<rect x="6.32556" y="6.32541" width="25.3492" height="25.3492" fill="black" fill-opacity="0.01"/>
<path d="M19.1338 17.1176V20.8823C19.1338 20.8823 22.8373 20.8774 24.3453 20.8774C23.5287 23.318 22.2589 24.647 19.1338 24.647C15.9712 24.647 13.5028 22.1187 13.5028 19C13.5028 15.8812 15.9712 13.3529 19.1338 13.3529C20.806 13.3529 21.8859 13.9324 22.8765 14.7403C23.6694 13.9583 23.6032 13.8469 25.6205 11.9682C23.908 10.4311 21.6319 9.49402 19.1338 9.49402C13.81 9.49402 9.49426 13.75 9.49426 19C9.49426 24.2499 13.81 28.5059 19.1338 28.5059C27.0914 28.5059 29.0365 21.6729 28.3916 17.1176C26.5078 17.1176 19.1338 17.1176 19.1338 17.1176Z" fill="white"/>
</svg>
