<svg width="24" height="17" viewBox="0 0 24 17" fill="none" xmlns="http://www.w3.org/2000/svg">
<path d="M7.57713 16.3113C7.65041 16.3992 7.74119 16.4708 7.8437 16.5217C7.9462 16.5725 8.05817 16.6014 8.17247 16.6066C8.28677 16.6117 8.4009 16.593 8.50757 16.5517C8.61424 16.5103 8.71112 16.4471 8.79202 16.3662C8.87293 16.2853 8.93609 16.1884 8.97748 16.0817C9.01887 15.9751 9.03757 15.8609 9.03241 15.7466C9.02724 15.6323 8.99832 15.5204 8.94748 15.4179C8.89664 15.3154 8.825 15.2246 8.73713 15.1513L2.81881 9.22602L22.381 9.22602C22.5922 9.21482 22.7911 9.12304 22.9366 8.96959C23.0821 8.81615 23.1632 8.61273 23.1632 8.40126C23.1632 8.18979 23.0821 7.98637 22.9366 7.83293C22.7911 7.67949 22.5922 7.5877 22.381 7.5765L2.81881 7.5765L8.74641 1.65818C8.8956 1.50194 8.97885 1.29421 8.97885 1.07818C8.97885 0.862146 8.8956 0.654422 8.74641 0.49818C8.67033 0.42186 8.57993 0.361305 8.4804 0.319988C8.38087 0.278671 8.27417 0.257402 8.16641 0.257402C8.05864 0.257402 7.95194 0.278671 7.85241 0.319988C7.75288 0.361305 7.66249 0.42186 7.58641 0.49818L0.255207 7.82938C0.177179 7.90449 0.115107 7.99457 0.07271 8.09423C0.0303116 8.19389 0.00845909 8.30108 0.00845909 8.40938C0.00845909 8.51768 0.0303116 8.62487 0.07271 8.72453C0.115107 8.82419 0.177179 8.91427 0.255207 8.98938L7.57713 16.3113Z" fill="black"/>
</svg>
