<svg width="17" height="17" viewBox="0 0 17 17" fill="none" xmlns="http://www.w3.org/2000/svg">
<path d="M15.5912 0.336993C15.8143 0.33699 16.0385 0.421026 16.2086 0.591226C16.549 0.931648 16.549 1.4857 16.2086 1.82609L9.63481 8.39992L16.2086 14.9738C16.5491 15.3142 16.549 15.8682 16.2086 16.2086C15.8682 16.549 15.3142 16.549 14.9738 16.2086L8.39996 9.6348L1.8261 16.2086C1.48568 16.549 0.931683 16.5491 0.591239 16.2086C0.250851 15.8682 0.250851 15.3142 0.591239 14.9738L7.16507 8.39992L0.591239 1.82609C0.250823 1.48567 0.250851 0.931613 0.591239 0.591226C0.931655 0.250841 1.48571 0.250841 1.8261 0.591226L8.39996 7.16506L14.9738 0.591226C15.144 0.421024 15.3681 0.336996 15.5912 0.336993Z" fill="black"/>
</svg>
