<svg width="41" height="30" viewBox="0 0 41 30" fill="none" xmlns="http://www.w3.org/2000/svg">
<path d="M1.63241 21.9249C1.63241 22.7321 0.4216 22.7321 0.4216 21.9249C0.556135 18.427 3.51589 15.7363 6.87926 15.7363H9.70448C13.2024 15.7363 16.0276 18.427 16.1621 21.9249C16.1621 22.7321 14.9513 22.7321 14.9513 21.9249C14.8168 19.0997 12.5297 16.9471 9.70448 16.9471H6.87926C4.18857 16.9471 1.90148 19.0997 1.76695 21.9249H1.63241ZM13.8751 15.0636C13.8751 15.8708 12.6642 15.8708 12.6642 15.0636C12.7988 11.5657 15.624 8.87504 18.9874 8.87504H21.8126C25.3105 8.87504 28.1357 11.5657 28.1357 15.0636C28.2703 15.8708 27.0594 15.8708 26.9249 15.0636C26.9249 12.2384 24.6378 10.0858 21.8126 10.0858H18.9874C16.1621 10.0858 13.8751 12.2384 13.8751 15.0636ZM13.7405 29.1898C13.7405 29.997 12.5297 29.997 12.5297 29.1898C12.5297 25.8264 15.3549 23.0012 18.8528 23.0012H21.6781C25.0414 23.0012 28.0012 25.8264 28.0012 29.1898C28.0012 29.997 26.7904 29.997 26.7904 29.1898C26.7904 26.4991 24.5033 24.212 21.6781 24.212H18.8528C16.0276 24.212 13.7405 26.4991 13.7405 29.1898ZM25.9832 21.9249C25.9832 22.7321 24.7724 22.7321 24.7724 21.9249C24.7724 18.427 27.5976 15.7363 31.23 15.7363H34.0552C37.5531 15.7363 40.3784 18.427 40.3784 21.9249C40.3784 22.7321 39.1675 22.7321 39.1675 21.9249C39.1675 19.0997 36.8805 16.9471 34.0552 16.9471H31.23C28.2703 16.9471 25.9832 19.0997 25.9832 21.9249ZM8.35914 7.79876C10.3772 7.79876 12.1261 9.54771 12.1261 11.7003C12.1261 13.7183 10.3772 15.4672 8.35914 15.4672C6.20659 15.4672 4.59217 13.7183 4.59217 11.7003C4.59217 9.54771 6.20659 7.79876 8.35914 7.79876ZM8.35914 9.00957C6.87926 9.00957 5.80298 10.2204 5.80298 11.7003C5.80298 13.0456 6.87926 14.2564 8.35914 14.2564C9.70448 14.2564 10.9153 13.0456 10.9153 11.7003C10.9153 10.2204 9.70448 9.00957 8.35914 9.00957ZM20.4672 0.9375C22.4853 0.9375 24.2342 2.55191 24.2342 4.839C24.2342 6.85702 22.4853 8.60597 20.4672 8.60597C18.3147 8.60597 16.5657 6.85702 16.5657 4.839C16.5657 2.55191 18.3147 0.9375 20.4672 0.9375ZM20.4672 2.14831C18.9874 2.14831 17.7766 3.22459 17.7766 4.839C17.7766 6.18435 18.9874 7.39516 20.4672 7.39516C21.8126 7.39516 23.0234 6.18435 23.0234 4.839C23.0234 3.22459 21.8126 2.14831 20.4672 2.14831ZM20.1982 15.1982C22.3507 15.1982 24.0997 16.9471 24.0997 18.9651C24.0997 21.1177 22.3507 22.7321 20.1982 22.7321C18.1802 22.7321 16.4312 21.1177 16.4312 18.9651C16.4312 16.9471 18.1802 15.1982 20.1982 15.1982ZM20.1982 16.409C18.8528 16.409 17.642 17.6198 17.642 18.9651C17.642 20.445 18.8528 21.5213 20.1982 21.5213C21.6781 21.5213 22.8889 20.445 22.8889 18.9651C22.8889 17.6198 21.6781 16.409 20.1982 16.409ZM32.5754 7.79876C34.7279 7.79876 36.4769 9.54771 36.4769 11.7003C36.4769 13.7183 34.7279 15.4672 32.5754 15.4672C30.5573 15.4672 28.6739 13.7183 28.6739 11.7003C28.6739 9.54771 30.5573 7.79876 32.5754 7.79876ZM32.5754 9.00957C31.23 9.00957 30.0192 10.2204 30.0192 11.7003C30.0192 13.0456 31.23 14.2564 32.5754 14.2564C34.0552 14.2564 35.266 13.0456 35.266 11.7003C35.266 10.2204 34.0552 9.00957 32.5754 9.00957Z" fill="black"/>
</svg>
