<svg width="29" height="29" viewBox="0 0 29 29" fill="none" xmlns="http://www.w3.org/2000/svg">
<path d="M14.7474 28.565C7.01188 28.565 0.718506 22.2717 0.718506 14.5361C0.718506 6.80058 7.01188 0.507202 14.7474 0.507202C22.483 0.507202 28.7763 6.80058 28.7763 14.5361C28.7763 22.2717 22.483 28.565 14.7474 28.565ZM14.7474 1.91009C7.78522 1.91009 2.1214 7.57392 2.1214 14.5361C2.1214 21.4983 7.78522 27.1622 14.7474 27.1622C21.7096 27.1622 27.3735 21.4983 27.3735 14.5361C27.3735 7.57392 21.7096 1.91009 14.7474 1.91009ZM18.9635 18.7522C19.2374 18.4783 19.2374 18.0342 18.9635 17.7603L15.4489 14.2454V6.11877C15.4489 5.73157 15.1346 5.41732 14.7474 5.41732C14.3602 5.41732 14.046 5.73157 14.046 6.11877V14.5361C14.046 14.722 14.12 14.9005 14.2515 15.032L17.9713 18.7518C18.1084 18.8889 18.2876 18.9573 18.4672 18.9573C18.6468 18.9573 18.8263 18.8889 18.9635 18.7522Z" fill="black"/>
</svg>
