<svg width="33" height="41" viewBox="0 0 33 41" fill="none" xmlns="http://www.w3.org/2000/svg">
<path d="M16.4 17.712C23.2834 17.712 28.864 23.2926 28.864 30.176H30.176C30.176 22.5677 24.0083 16.4 16.4 16.4C8.79174 16.4 2.62402 22.5677 2.62402 30.176H3.93602C3.93602 23.2926 9.51629 17.712 16.4 17.712Z" fill="black"/>
<path d="M16.4 2.62399C12.2334 2.62399 8.85596 6.00141 8.85596 10.168C8.85596 14.3346 12.2334 17.712 16.4 17.712C20.5665 17.712 23.944 14.3346 23.944 10.168C23.944 6.00141 20.5665 2.62399 16.4 2.62399ZM16.4 16.4C12.9579 16.4 10.168 13.61 10.168 10.168C10.168 6.72596 12.9579 3.93599 16.4 3.93599C19.842 3.93599 22.632 6.72596 22.632 10.168C22.632 13.61 19.842 16.4 16.4 16.4Z" fill="black"/>
</svg>
