<svg width="32" height="21" viewBox="0 0 32 21" fill="none" xmlns="http://www.w3.org/2000/svg">
<g clip-path="url(#clip0)">
<path d="M24.8224 1.19939C26.4088 1.19939 27.9301 1.8312 29.0519 2.95585C30.1736 4.08049 30.8037 5.60583 30.8037 7.19631C30.8037 8.7868 30.1736 10.3121 29.0519 11.4368C27.9301 12.5614 26.4088 13.1932 24.8224 13.1932H7.17757C5.59123 13.1932 4.06986 12.5614 2.94815 11.4368C1.82643 10.3121 1.19626 8.7868 1.19626 7.19631C1.19626 5.60583 1.82643 4.08049 2.94815 2.95585C4.06986 1.8312 5.59123 1.19939 7.17757 1.19939H24.8224ZM24.8224 0H7.17757C5.27567 0.00558447 3.45327 0.765557 2.10842 2.11392C0.763568 3.46228 0.0055725 5.28944 0 7.1963V7.19632C0.00557222 9.10318 0.763566 10.9303 2.10842 12.2787C3.45327 13.6271 5.27567 14.387 7.17757 14.3926H24.8224C26.7243 14.387 28.5467 13.6271 29.8916 12.2787C31.2364 10.9304 31.9944 9.10318 32 7.19632V7.1963C31.9944 5.28944 31.2364 3.46227 29.8916 2.11391C28.5467 0.765551 26.7243 0.00557993 24.8224 0Z" fill="black"/>
<path d="M16 3.59819C16.7098 3.59819 17.4037 3.80921 17.9938 4.20459C18.584 4.59996 19.044 5.16191 19.3156 5.81939C19.5872 6.47686 19.6583 7.20034 19.5198 7.89831C19.3814 8.59628 19.0396 9.23741 18.5377 9.74062C18.0358 10.2438 17.3963 10.5865 16.7002 10.7254C16.004 10.8642 15.2824 10.7929 14.6266 10.5206C13.9709 10.2483 13.4104 9.78709 13.0161 9.19538C12.6217 8.60366 12.4112 7.90799 12.4112 7.19635C12.4123 6.24239 12.7908 5.32781 13.4635 4.65325C14.1363 3.9787 15.0485 3.59927 16 3.59819ZM16 2.3988C15.0536 2.3988 14.1285 2.68017 13.3416 3.20733C12.5547 3.73449 11.9414 4.48377 11.5792 5.3604C11.217 6.23704 11.1223 7.20167 11.3069 8.1323C11.4915 9.06293 11.9473 9.91777 12.6165 10.5887C13.2857 11.2597 14.1383 11.7166 15.0665 11.9017C15.9947 12.0868 16.9568 11.9918 17.8312 11.6287C18.7055 11.2656 19.4528 10.6507 19.9786 9.86172C20.5044 9.07277 20.7851 8.14521 20.7851 7.19635C20.7851 5.92396 20.2809 4.70369 19.3836 3.80397C18.4862 2.90426 17.2691 2.39881 16 2.3988Z" fill="black"/>
<path d="M21.3832 15.592H10.6169C10.4584 15.5923 10.3064 15.6555 10.1944 15.768C10.0824 15.8804 10.0195 16.0328 10.0195 16.1917C10.0195 16.3506 10.0824 16.5031 10.1944 16.6155C10.3064 16.7279 10.4584 16.7912 10.6169 16.7914H21.3832C21.5417 16.7912 21.6936 16.7279 21.8056 16.6155C21.9176 16.5031 21.9805 16.3506 21.9805 16.1917C21.9805 16.0328 21.9176 15.8804 21.8056 15.768C21.6936 15.6555 21.5417 15.5923 21.3832 15.592Z" fill="black"/>
<path d="M7.73834 11.6426C8.20551 11.6426 8.58423 11.2629 8.58423 10.7945C8.58423 10.3261 8.20551 9.94641 7.73834 9.94641C7.27117 9.94641 6.89246 10.3261 6.89246 10.7945C6.89246 11.2629 7.27117 11.6426 7.73834 11.6426Z" fill="black"/>
</g>
<defs>
<clipPath id="clip0">
<rect width="32" height="20.9892" fill="white"/>
</clipPath>
</defs>
</svg>
