<svg width="165" height="170" viewBox="0 0 165 170" fill="none" xmlns="http://www.w3.org/2000/svg">
<path d="M42.75 168.333H18C13.624 168.333 9.42713 166.577 6.33278 163.452C3.23843 160.326 1.50005 156.087 1.50005 151.666V93.3332C1.50005 88.9129 3.23843 84.6737 6.33278 81.5481C9.42713 78.4225 13.624 76.6665 18 76.6665H42.75M100.5 59.9998V26.6665C100.5 20.0361 97.8925 13.6772 93.2509 8.98883C88.6094 4.30043 82.3142 1.6665 75.75 1.6665L42.75 76.6665V168.333H135.81C139.789 168.379 143.651 166.97 146.683 164.367C149.715 161.763 151.713 158.141 152.31 154.166L163.695 79.1665C164.054 76.7778 163.894 74.3388 163.228 72.0186C162.561 69.6983 161.402 67.5523 159.833 65.7291C158.263 63.906 156.32 62.4493 154.138 61.46C151.956 60.4707 149.587 59.9725 147.195 59.9998H100.5Z" stroke="#3FC979" stroke-width="2" stroke-linecap="round" stroke-linejoin="round"/>
</svg>
