<svg width="833" height="485" viewBox="0 0 833 485" fill="none" xmlns="http://www.w3.org/2000/svg">
<path d="M79.587 50.0869C91.2055 50.0869 101.533 52.5766 110.57 57.5559C119.791 62.5353 126.983 69.9121 132.147 79.6864C137.495 89.4606 140.169 101.264 140.169 115.095V205H108.91V119.798C108.91 106.151 105.498 95.7309 98.6745 88.5385C91.8509 81.1617 82.5377 77.4733 70.7348 77.4733C58.9319 77.4733 49.5265 81.1617 42.5185 88.5385C35.6949 95.7309 32.2832 106.151 32.2832 119.798V205H0.74729V0.29341H32.2832V70.2809C37.6314 63.8262 44.3627 58.8469 52.4772 55.3429C60.7761 51.8389 69.8127 50.0869 79.587 50.0869ZM169.883 128.097C169.883 112.79 173.018 99.2349 179.289 87.432C185.743 75.6291 194.411 66.5003 205.292 60.0456C216.357 53.4065 228.529 50.0869 241.807 50.0869C253.794 50.0869 264.214 52.4844 273.066 57.2793C282.103 61.8898 289.295 67.699 294.643 74.707V52.5766H326.456V205H294.643V182.316C289.295 189.509 282.011 195.502 272.79 200.297C263.569 205.092 253.057 207.49 241.254 207.49C228.16 207.49 216.173 204.17 205.292 197.531C194.411 190.707 185.743 181.302 179.289 169.315C173.018 157.143 169.883 143.404 169.883 128.097ZM294.643 128.65C294.643 118.138 292.43 109.009 288.004 101.264C283.763 93.5179 278.138 87.6164 271.13 83.5592C264.122 79.5019 256.561 77.4733 248.446 77.4733C240.332 77.4733 232.77 79.5019 225.762 83.5592C218.754 87.432 213.037 93.2413 208.611 100.987C204.37 108.548 202.249 117.585 202.249 128.097C202.249 138.609 204.37 147.83 208.611 155.76C213.037 163.69 218.754 169.776 225.762 174.017C232.955 178.075 240.516 180.103 248.446 180.103C256.561 180.103 264.122 178.075 271.13 174.017C278.138 169.96 283.763 164.059 288.004 156.313C292.43 148.383 294.643 139.162 294.643 128.65ZM357.365 128.65C357.365 112.974 360.5 99.2349 366.771 87.432C373.225 75.4447 382.077 66.2237 393.327 59.769C404.577 53.3143 417.486 50.0869 432.055 50.0869C450.497 50.0869 465.712 54.513 477.699 63.3652C489.871 72.0329 498.078 84.4813 502.319 100.71H468.294C465.528 93.1491 461.102 87.2476 455.016 83.0059C448.93 78.7643 441.276 76.6434 432.055 76.6434C419.146 76.6434 408.818 81.2539 401.073 90.475C393.511 99.5116 389.731 112.237 389.731 128.65C389.731 145.063 393.511 157.881 401.073 167.102C408.818 176.323 419.146 180.933 432.055 180.933C450.313 180.933 462.392 172.911 468.294 156.866H502.319C497.893 172.358 489.594 184.714 477.423 193.935C465.251 202.971 450.129 207.49 432.055 207.49C417.486 207.49 404.577 204.262 393.327 197.808C382.077 191.168 373.225 181.947 366.771 170.145C360.5 158.157 357.365 144.326 357.365 128.65ZM594.053 128.927L664.317 205H621.716L565.283 139.439V205H533.747V0.29341H565.283V119.245L620.609 52.5766H664.317L594.053 128.927ZM676.409 128.097C676.409 112.79 679.544 99.2349 685.814 87.432C692.269 75.6291 700.937 66.5003 711.817 60.0456C722.883 53.4065 735.054 50.0869 748.333 50.0869C760.32 50.0869 770.74 52.4844 779.592 57.2793C788.628 61.8898 795.821 67.699 801.169 74.707V52.5766H832.982V205H801.169V182.316C795.821 189.509 788.536 195.502 779.315 200.297C770.094 205.092 759.582 207.49 747.779 207.49C734.686 207.49 722.698 204.17 711.817 197.531C700.937 190.707 692.269 181.302 685.814 169.315C679.544 157.143 676.409 143.404 676.409 128.097ZM801.169 128.65C801.169 118.138 798.956 109.009 794.53 101.264C790.288 93.5179 784.663 87.6164 777.655 83.5592C770.647 79.5019 763.086 77.4733 754.972 77.4733C746.857 77.4733 739.296 79.5019 732.288 83.5592C725.28 87.432 719.563 93.2413 715.137 100.987C710.895 108.548 708.774 117.585 708.774 128.097C708.774 138.609 710.895 147.83 715.137 155.76C719.563 163.69 725.28 169.776 732.288 174.017C739.48 178.075 747.042 180.103 754.972 180.103C763.086 180.103 770.647 178.075 777.655 174.017C784.663 169.96 790.288 164.059 794.53 156.313C798.956 148.383 801.169 139.162 801.169 128.65Z" fill="#F9A826"/>
<path d="M51.3705 283.01V367.382C51.3705 373.099 52.6615 377.248 55.2434 379.83C58.0097 382.228 62.6202 383.426 69.0749 383.426H88.439V409.706H63.5423C49.3419 409.706 38.4611 406.387 30.8999 399.748C23.3386 393.109 19.558 382.32 19.558 367.382V283.01H1.57705V257.283H19.558V219.385H51.3705V257.283H88.439V283.01H51.3705ZM109.759 332.803C109.759 317.496 112.894 303.941 119.164 292.138C125.619 280.335 134.287 271.207 145.168 264.752C156.233 258.113 168.405 254.793 181.683 254.793C193.67 254.793 204.09 257.191 212.942 261.986C221.979 266.596 229.171 272.405 234.519 279.413V257.283H266.332V409.706H234.519V387.023C229.171 394.215 221.887 400.209 212.666 405.004C203.445 409.799 192.933 412.196 181.13 412.196C168.036 412.196 156.049 408.876 145.168 402.237C134.287 395.414 125.619 386.008 119.164 374.021C112.894 361.849 109.759 348.11 109.759 332.803ZM234.519 333.356C234.519 322.844 232.306 313.716 227.88 305.97C223.639 298.224 218.014 292.323 211.006 288.266C203.998 284.208 196.437 282.18 188.322 282.18C180.208 282.18 172.646 284.208 165.638 288.266C158.63 292.138 152.913 297.948 148.487 305.693C144.246 313.255 142.125 322.291 142.125 332.803C142.125 343.315 144.246 352.536 148.487 360.466C152.913 368.396 158.63 374.482 165.638 378.724C172.831 382.781 180.392 384.81 188.322 384.81C196.437 384.81 203.998 382.781 211.006 378.724C218.014 374.666 223.639 368.765 227.88 361.019C232.306 353.089 234.519 343.868 234.519 333.356ZM387.423 254.793C399.41 254.793 410.106 257.283 419.512 262.262C429.102 267.242 436.571 274.618 441.919 284.393C447.267 294.167 449.941 305.97 449.941 319.801V409.706H418.682V324.504C418.682 310.857 415.27 300.437 408.447 293.245C401.623 285.868 392.31 282.18 380.507 282.18C368.704 282.18 359.298 285.868 352.291 293.245C345.467 300.437 342.055 310.857 342.055 324.504V409.706H310.519V257.283H342.055V274.711C347.219 268.44 353.766 263.553 361.696 260.049C369.81 256.545 378.386 254.793 387.423 254.793ZM554.345 254.793C566.148 254.793 576.568 257.191 585.605 261.986C594.826 266.596 602.018 272.405 607.182 279.413V257.283H638.994V412.196C638.994 426.212 636.044 438.66 630.142 449.541C624.241 460.606 615.665 469.274 604.415 475.544C593.35 481.815 580.072 484.95 564.581 484.95C543.926 484.95 526.774 480.063 513.127 470.288C499.48 460.699 491.735 447.605 489.89 431.007H521.15C523.547 438.937 528.619 445.299 536.364 450.094C544.294 455.074 553.7 457.563 564.581 457.563C577.306 457.563 587.541 453.691 595.287 445.945C603.217 438.199 607.182 426.95 607.182 412.196V386.746C601.834 393.938 594.549 400.024 585.328 405.004C576.291 409.799 565.964 412.196 554.345 412.196C541.067 412.196 528.895 408.876 517.83 402.237C506.949 395.414 498.282 386.008 491.827 374.021C485.557 361.849 482.421 348.11 482.421 332.803C482.421 317.496 485.557 303.941 491.827 292.138C498.282 280.335 506.949 271.207 517.83 264.752C528.895 258.113 541.067 254.793 554.345 254.793ZM607.182 333.356C607.182 322.844 604.969 313.716 600.543 305.97C596.301 298.224 590.676 292.323 583.668 288.266C576.66 284.208 569.099 282.18 560.984 282.18C552.87 282.18 545.309 284.208 538.301 288.266C531.293 292.138 525.576 297.948 521.15 305.693C516.908 313.255 514.787 322.291 514.787 332.803C514.787 343.315 516.908 352.536 521.15 360.466C525.576 368.396 531.293 374.482 538.301 378.724C545.493 382.781 553.054 384.81 560.984 384.81C569.099 384.81 576.66 382.781 583.668 378.724C590.676 374.666 596.301 368.765 600.543 361.019C604.969 353.089 607.182 343.868 607.182 333.356ZM672.67 332.803C672.67 317.496 675.805 303.941 682.075 292.138C688.53 280.335 697.198 271.207 708.078 264.752C719.144 258.113 731.315 254.793 744.594 254.793C756.581 254.793 767.001 257.191 775.853 261.986C784.889 266.596 792.082 272.405 797.43 279.413V257.283H829.243V409.706H797.43V387.023C792.082 394.215 784.797 400.209 775.576 405.004C766.355 409.799 755.843 412.196 744.04 412.196C730.947 412.196 718.959 408.876 708.078 402.237C697.198 395.414 688.53 386.008 682.075 374.021C675.805 361.849 672.67 348.11 672.67 332.803ZM797.43 333.356C797.43 322.844 795.217 313.716 790.791 305.97C786.549 298.224 780.924 292.323 773.916 288.266C766.908 284.208 759.347 282.18 751.233 282.18C743.118 282.18 735.557 284.208 728.549 288.266C721.541 292.138 715.824 297.948 711.398 305.693C707.156 313.255 705.035 322.291 705.035 332.803C705.035 343.315 707.156 352.536 711.398 360.466C715.824 368.396 721.541 374.482 728.549 378.724C735.741 382.781 743.303 384.81 751.233 384.81C759.347 384.81 766.908 382.781 773.916 378.724C780.924 374.666 786.549 368.765 790.791 361.019C795.217 353.089 797.43 343.868 797.43 333.356Z" fill="#F9A826"/>
</svg>
